<svg aria-hidden="true" style="position: absolute; width: 0; height: 0; overflow: hidden;" version="1.1" xmlns="http://www.w3.org/2000/svg" xmlns:xlink="http://www.w3.org/1999/xlink">
<defs>
<symbol id="logo" viewBox="0 0 26 28">
<path fill="#349334" style="fill: var(--color1, #349334)" d="M23.109 10.145v0.001h-1.134v-1.013c0-5.027-4.099-9.101-9.154-9.101s-9.153 4.075-9.153 9.101v1.013h-1.132c-1.188 0-2.151 0.957-2.151 2.139v8.355c0.003 0.557 0.036 0.961 0.253 1.255 0.225 0.296 0.605 0.401 1.172 0.4h1.82l0.278 4.4c0 0.010-0.001 0.028-0.001 0.050 0.001 0.117 0.014 0.385 0.161 0.642 0.145 0.259 0.451 0.491 0.945 0.487h4.627l2.403-2.549h1.795l2.324 2.628h0.064c0 0 0.841 0 1.772 0 0.93 0 1.951 0 2.311 0v0h0.001c0.358-0.002 0.684 0.007 0.968-0.173 0.283-0.185 0.453-0.534 0.535-1.145 0.119-0.887 0.147-3.314 0.202-4.338h1.819c0.56-0.002 0.925-0.055 1.163-0.311 0.229-0.259 0.259-0.63 0.262-1.186v-8.514c0-1.183-0.963-2.139-2.15-2.14h0z"></path>
<path fill="#4cb649" style="fill: var(--color2, #4cb649)" d="M24.975 20.801c0.003 0.547-0.052 0.854-0.188 0.995-0.126 0.147-0.401 0.218-0.95 0.217h-2.091l-0.007 0.135c-0.051 0.965-0.084 3.547-0.206 4.45-0.078 0.583-0.231 0.83-0.407 0.943-0.178 0.119-0.449 0.128-0.812 0.126h-0.001c-0.662 0-3.549 0-4.020 0l-2.324-2.628h-2.049l-2.403 2.548h-4.504c-0.41-0.004-0.585-0.161-0.697-0.344-0.107-0.183-0.124-0.409-0.123-0.498 0-0.028 0.001-0.039 0.001-0.039l0.001-0.011-0.297-4.683h-2.089c-0.544-0.001-0.804-0.101-0.942-0.286-0.146-0.186-0.199-0.539-0.197-1.084v-8.354c0.002-1.024 0.835-1.852 1.865-1.854h1.419v-1.298c0.009-4.868 3.969-8.806 8.868-8.815 4.898 0.009 8.859 3.947 8.868 8.816v1.298h1.42c1.029 0.002 1.862 0.829 1.863 1.854v8.514h0.001z"></path>
<path fill="#118011" style="fill: var(--color3, #118011)" d="M4.226 21.783h17.231v0.565h-17.231v-0.565z"></path>
<path fill="#118011" style="fill: var(--color3, #118011)" d="M3.942 21.982v-10.788h0.285v10.788h-0.285z"></path>
<path fill="#118011" style="fill: var(--color3, #118011)" d="M21.459 21.982v-10.788h0.286v10.788h-0.286z"></path>
<path fill="#000" style="fill: var(--color4, #000)" d="M6.526 13.524c0-0.623 2.762-1.127 6.168-1.127s6.169 0.505 6.169 1.127-2.762 1.127-6.169 1.127c-3.407 0-6.168-0.505-6.168-1.127z"></path>
<path fill="#fff" style="fill: var(--color5, #fff)" d="M18.449 10.635v-1.65c0-3.108-2.517-5.629-5.624-5.629s-5.625 2.521-5.625 5.629v1.65h11.248z"></path>
<path fill="#000" style="fill: var(--color4, #000)" d="M10.455 8.912h5.016v0.59h-5.016v-0.59z"></path>
<path fill="#000" style="fill: var(--color4, #000)" d="M9.914 6.429c0-0.575 0.464-1.041 1.037-1.041s1.037 0.466 1.037 1.041c0 0.575-0.464 1.041-1.037 1.041s-1.037-0.466-1.037-1.041z"></path>
<path fill="#000" style="fill: var(--color4, #000)" d="M13.62 6.429c0-0.575 0.464-1.041 1.037-1.041s1.037 0.466 1.037 1.041c0 0.575-0.464 1.041-1.037 1.041s-1.037-0.466-1.037-1.041z"></path>
<path fill="#fff" style="fill: var(--color5, #fff)" d="M10.805 19.722v-2.816h3.779v2.816h-3.779z"></path>
<path fill="#fff" style="fill: var(--color5, #fff)" d="M11.377 16.612c0.17-0.595 0.697-1.027 1.32-1.027 0.623 0.001 1.15 0.433 1.321 1.027h0.449c-0.181-0.831-0.899-1.458-1.769-1.458-0.869 0.001-1.588 0.628-1.768 1.458h0.449z"></path>
<path fill="#118011" style="fill: var(--color3, #118011)" d="M24.122 22.589c0.101-0.001 0.193-0.004 0.282-0.008v-0.315c-0.163 0.025-0.351 0.035-0.57 0.035h-1.82c-0.028 0.509-0.048 1.363-0.077 2.203h0.296c0.024-0.743 0.044-1.465 0.067-1.915l1.821 0z"></path>
<path fill="#000" style="fill: var(--color4, #000)" d="M24.406 22.732v-0.157c-0.089 0.004-0.182 0.007-0.282 0.008h-1.82c-0.024 0.452-0.044 1.176-0.067 1.921h0.421c0.966 0 1.748-0.793 1.748-1.772z"></path>
<path fill="#118011" style="fill: var(--color3, #118011)" d="M3.632 22.297h-1.821c-0.282 0.001-0.517-0.025-0.71-0.088v0.367c0.115 0.013 0.24 0.020 0.377 0.019l1.822-0.001 0.121 1.908h0.351l-0.14-2.205z"></path>
<path fill="#000" style="fill: var(--color4, #000)" d="M1.478 22.592c-0.137 0-0.262-0.006-0.378-0.019v0.159c0 0.979 0.783 1.773 1.748 1.773h0.574l-0.121-1.913h-1.823z"></path>
</symbol>
<symbol id="logo-text" viewBox="0 0 263 28">
<path d="M0.636 27.346v-18.807h3.366l0.126 1.331c0.88-1.054 2.027-1.582 3.443-1.582 1.674 0 2.976 0.62 3.905 1.858 0.929 1.239 1.394 2.946 1.394 5.122v0.189h-0.001c0 2.092-0.475 3.768-1.427 5.029-0.949 1.26-2.234 1.889-3.848 1.889-1.373 0-2.483-0.477-3.328-1.432v6.404h-3.629z"></path>
<path d="M23.139 11.943c-0.495-0.067-0.929-0.1-1.307-0.1-1.374 0-2.275 0.465-2.702 1.394v8.89h-3.632v-13.587h3.432l0.1 1.619c0.73-1.247 1.738-1.871 3.029-1.871 0.402 0 0.779 0.054 1.131 0.163l-0.051 3.493z"></path>
<path d="M25.8 6.379c-0.372-0.352-0.559-0.804-0.559-1.356 0-0.544 0.182-0.991 0.546-1.343s0.86-0.528 1.487-0.528c0.619 0 1.114 0.176 1.481 0.528 0.369 0.352 0.553 0.8 0.553 1.343 0 0.552-0.186 1.005-0.559 1.356-0.373 0.352-0.865 0.528-1.476 0.528s-1.102-0.176-1.475-0.528zM25.455 22.124v-13.586h3.642v13.586h-3.642z"></path>
<path d="M37.555 17.692l2.525-9.157h3.794l-4.585 13.591h-3.467l-4.585-13.593h3.794l2.525 9.158z"></path>
<path d="M46.43 21.216c-0.875-0.77-1.313-1.74-1.313-2.912 0-1.439 0.534-2.543 1.601-3.314 1.068-0.77 2.611-1.159 4.629-1.167h1.67v-0.779c0-0.627-0.162-1.129-0.483-1.506-0.322-0.376-0.832-0.564-1.526-0.564-0.611 0-1.090 0.146-1.438 0.439-0.347 0.294-0.521 0.695-0.521 1.205h-3.63c0-0.787 0.243-1.514 0.729-2.185s1.172-1.196 2.060-1.576c0.888-0.381 1.884-0.571 2.989-0.571 1.674 0 3.004 0.42 3.988 1.261 0.984 0.842 1.475 2.024 1.475 3.546v5.888c0.009 1.288 0.189 2.263 0.54 2.925v0.212h-3.666v0.005c-0.168-0.328-0.288-0.733-0.363-1.218-0.88 0.979-2.022 1.468-3.43 1.468-1.331 0-2.435-0.385-3.309-1.156v0z"></path>
<path d="M64.178 5.192v3.34h2.324v2.662h-2.324v6.782c0 0.502 0.096 0.862 0.289 1.080s0.561 0.327 1.105 0.327c0.402 0 0.757-0.030 1.067-0.088v2.751c-0.712 0.217-1.444 0.327-2.198 0.327-2.546 0-3.843-1.285-3.892-3.856v-7.322h-1.984v-2.663h1.984v-3.34h3.629z"></path>
<path d="M70.293 20.539c-1.253-1.222-1.878-2.849-1.878-4.882v-0.352c0-1.363 0.264-2.584 0.791-3.658 0.528-1.076 1.276-1.903 2.243-2.486 0.967-0.581 2.070-0.871 3.311-0.871 1.86 0 3.324 0.586 4.393 1.756 1.068 1.171 1.602 2.833 1.602 4.983v1.481h-8.657c0.117 0.887 0.471 1.598 1.061 2.134 0.591 0.535 1.337 0.804 2.244 0.804 1.398 0 2.491-0.507 3.279-1.519l1.784 1.995c-0.544 0.771-1.281 1.37-2.211 1.802-0.931 0.432-1.962 0.646-3.092 0.646-1.994 0-3.617-0.611-4.869-1.833v0z"></path>
<path d="M83.947 5.326c-0.184-0.192-0.276-0.428-0.276-0.712 0-0.282 0.093-0.521 0.276-0.717 0.184-0.195 0.435-0.294 0.753-0.294 0.319 0 0.571 0.097 0.761 0.294 0.188 0.196 0.282 0.434 0.282 0.717 0 0.284-0.094 0.521-0.282 0.712-0.189 0.192-0.442 0.288-0.761 0.288-0.318 0-0.569-0.096-0.753-0.288zM83.935 22.124v-13.586h1.507v13.586h-1.507z"></path>
<path d="M91.341 8.539l0.051 2.323c0.51-0.837 1.146-1.475 1.907-1.915 0.76-0.44 1.602-0.66 2.521-0.66 1.455 0 2.538 0.411 3.249 1.231s1.071 2.051 1.079 3.691v8.915h-1.493v-8.927c-0.009-1.213-0.265-2.117-0.771-2.712s-1.315-0.892-2.427-0.892c-0.928 0-1.75 0.291-2.466 0.872-0.715 0.582-1.244 1.366-1.587 2.354v9.303h-1.493v-13.584h1.431z"></path>
<path d="M106.755 5.056v3.478h2.812v1.231h-2.812v9.063c0 0.755 0.136 1.316 0.408 1.685 0.271 0.369 0.726 0.553 1.362 0.553 0.252 0 0.657-0.042 1.218-0.126l0.063 1.22c-0.393 0.141-0.928 0.211-1.606 0.211-1.029 0-1.778-0.3-2.246-0.898s-0.703-1.48-0.703-2.643v-9.064h-2.497v-1.231h2.497v-3.478h1.504z"></path>
<path d="M115.192 21.519c-0.934-0.569-1.661-1.362-2.18-2.378-0.519-1.017-0.779-2.157-0.779-3.421v-0.54c0-1.305 0.253-2.48 0.76-3.527 0.508-1.045 1.212-1.867 2.117-2.466 0.904-0.598 1.885-0.898 2.939-0.898 1.651 0 2.96 0.563 3.928 1.689 0.967 1.126 1.45 2.663 1.45 4.613v0.84h-9.701v0.289c0 1.539 0.443 2.822 1.326 3.847s1.997 1.538 3.336 1.538c0.805 0 1.514-0.147 2.132-0.44 0.615-0.291 1.174-0.761 1.677-1.405l0.944 0.715c-1.108 1.598-2.713 2.397-4.815 2.397-1.157 0-2.201-0.285-3.135-0.853z"></path>
<path d="M133.015 9.821c-0.317-0.058-0.657-0.088-1.017-0.088-0.938 0-1.731 0.261-2.381 0.784-0.649 0.523-1.112 1.283-1.388 2.279v9.33h-1.495v-13.587h1.469l0.024 2.16c0.796-1.607 2.073-2.411 3.831-2.411 0.418 0 0.749 0.054 0.992 0.163l-0.035 1.37z"></path>
<path d="M137.201 8.539l0.050 2.323c0.511-0.837 1.147-1.475 1.91-1.915 0.761-0.44 1.603-0.66 2.524-0.66 1.457 0 2.541 0.411 3.254 1.231 0.712 0.82 1.071 2.051 1.080 3.691v8.915h-1.496v-8.927c-0.008-1.213-0.265-2.117-0.772-2.712-0.506-0.594-1.316-0.892-2.43-0.892-0.929 0-1.751 0.291-2.469 0.872-0.715 0.582-1.246 1.366-1.588 2.354v9.303h-1.496v-13.584h1.433z"></path>
<path d="M152.41 21.519c-0.935-0.569-1.661-1.362-2.18-2.379-0.519-1.017-0.778-2.157-0.778-3.421v-0.54c0-1.305 0.252-2.48 0.76-3.527 0.509-1.045 1.212-1.867 2.117-2.466 0.904-0.598 1.884-0.898 2.94-0.898 1.651 0 2.96 0.563 3.928 1.689 0.967 1.126 1.45 2.663 1.45 4.613v0.84h-9.701v0.289c0 1.539 0.442 2.822 1.325 3.847 0.884 1.025 1.996 1.538 3.337 1.538 0.805 0 1.514-0.147 2.13-0.44 0.615-0.291 1.175-0.761 1.678-1.405l0.943 0.715c-1.106 1.598-2.71 2.397-4.814 2.397-1.157 0-2.201-0.285-3.135-0.853z"></path>
<path d="M166.291 5.056v3.478h2.812v1.231h-2.812v9.063c0 0.755 0.135 1.316 0.408 1.685 0.271 0.369 0.726 0.553 1.362 0.553 0.252 0 0.658-0.042 1.218-0.126l0.063 1.22c-0.393 0.141-0.928 0.211-1.607 0.211-1.029 0-1.777-0.3-2.246-0.898-0.468-0.598-0.702-1.48-0.702-2.643v-9.064h-2.497v-1.231h2.497v-3.478h1.504z"></path>
<path d="M173.111 21.28c-0.807-0.729-1.211-1.65-1.211-2.763 0-1.323 0.551-2.37 1.651-3.14 1.101-0.77 2.634-1.156 4.602-1.156h2.725v-1.543c0-0.971-0.301-1.736-0.898-2.292-0.599-0.556-1.471-0.835-2.618-0.835-1.048 0-1.913 0.267-2.601 0.804-0.687 0.536-1.030 1.18-1.030 1.934l-1.506-0.013c0-1.081 0.502-2.015 1.506-2.806 1.006-0.793 2.24-1.187 3.705-1.187 1.514 0 2.711 0.378 3.585 1.137 0.874 0.758 1.324 1.816 1.349 3.172v6.43c0 1.315 0.139 2.299 0.415 2.952v0.15h-1.608v-0.003c-0.15-0.426-0.246-1.059-0.289-1.895-0.527 0.687-1.198 1.216-2.015 1.588-0.814 0.373-1.68 0.559-2.591 0.559-1.307 0-2.364-0.363-3.172-1.092v0z"></path>
<path d="M191.786 21.104c1.045 0 1.923-0.295 2.631-0.885 0.707-0.59 1.090-1.353 1.149-2.29h1.443c-0.042 0.828-0.301 1.584-0.778 2.266s-1.111 1.215-1.9 1.6c-0.792 0.385-1.639 0.577-2.543 0.577-1.783 0-3.194-0.619-4.236-1.858-1.042-1.238-1.563-2.903-1.563-4.995v-0.452c0-1.339 0.233-2.522 0.702-3.551s1.141-1.824 2.015-2.384c0.874-0.561 1.898-0.841 3.070-0.841 1.489 0 2.717 0.444 3.684 1.33 0.966 0.887 1.483 2.054 1.549 3.502h-1.443c-0.069-1.062-0.45-1.92-1.15-2.573-0.699-0.652-1.579-0.979-2.641-0.979-1.357 0-2.409 0.489-3.158 1.468s-1.124 2.352-1.124 4.117v0.439c0 1.732 0.375 3.083 1.124 4.054 0.75 0.97 1.807 1.454 3.171 1.454v0z"></path>
<path d="M205.411 21.104c1.045 0 1.923-0.295 2.63-0.885 0.708-0.59 1.091-1.353 1.149-2.29h1.444c-0.042 0.828-0.301 1.584-0.778 2.266s-1.111 1.215-1.902 1.6c-0.791 0.385-1.638 0.577-2.542 0.577-1.783 0-3.194-0.619-4.236-1.858-1.043-1.238-1.565-2.903-1.565-4.995v-0.452c0-1.339 0.234-2.522 0.703-3.551 0.468-1.029 1.14-1.824 2.015-2.384 0.874-0.561 1.897-0.841 3.068-0.841 1.49 0 2.718 0.444 3.684 1.33 0.967 0.887 1.484 2.054 1.55 3.502h-1.444c-0.068-1.062-0.449-1.92-1.149-2.573-0.699-0.652-1.58-0.979-2.643-0.979-1.356 0-2.408 0.489-3.157 1.468s-1.123 2.352-1.123 4.117v0.439c0 1.732 0.374 3.083 1.123 4.054 0.75 0.97 1.807 1.454 3.171 1.454v0z"></path>
<path d="M216.153 21.519c-0.933-0.569-1.659-1.362-2.178-2.379-0.518-1.017-0.777-2.157-0.777-3.421v-0.54c0-1.305 0.252-2.48 0.76-3.527 0.506-1.045 1.21-1.867 2.115-2.466 0.903-0.598 1.882-0.898 2.935-0.898 1.65 0 2.958 0.563 3.925 1.689 0.966 1.126 1.449 2.663 1.449 4.613v0.84h-9.691v0.289c0 1.539 0.442 2.822 1.325 3.847 0.882 1.025 1.994 1.538 3.332 1.538 0.804 0 1.513-0.147 2.129-0.44 0.614-0.291 1.173-0.761 1.675-1.405l0.942 0.715c-1.105 1.598-2.708 2.397-4.809 2.397-1.155 0-2.198-0.285-3.131-0.853z"></path>
<path d="M235.834 18.671c0-0.745-0.3-1.343-0.898-1.795s-1.501-0.805-2.707-1.060c-1.206-0.255-2.143-0.547-2.809-0.879-0.665-0.33-1.16-0.734-1.482-1.211s-0.484-1.054-0.484-1.732c0-1.071 0.448-1.957 1.344-2.656s2.044-1.048 3.443-1.048c1.516 0 2.732 0.375 3.651 1.123 0.917 0.75 1.375 1.726 1.375 2.932h-1.507c0-0.795-0.334-1.456-0.999-1.984-0.666-0.528-1.505-0.79-2.52-0.79-0.988 0-1.781 0.219-2.38 0.66-0.599 0.439-0.898 1.010-0.898 1.714 0 0.678 0.25 1.203 0.748 1.576s1.407 0.714 2.725 1.023c1.32 0.309 2.308 0.64 2.966 0.991s1.146 0.774 1.464 1.267c0.317 0.494 0.477 1.092 0.477 1.795 0 1.147-0.463 2.063-1.388 2.749s-2.134 1.029-3.625 1.029c-1.583 0-2.867-0.383-3.85-1.148-0.985-0.766-1.476-1.735-1.476-2.906h1.508c0.057 0.879 0.429 1.562 1.112 2.053 0.682 0.489 1.585 0.733 2.707 0.733 1.047 0 1.893-0.231 2.539-0.69 0.642-0.462 0.965-1.044 0.965-1.747v0z"></path>
<path d="M249.238 18.671c0-0.745-0.3-1.343-0.898-1.795s-1.502-0.805-2.707-1.060c-1.206-0.255-2.143-0.547-2.809-0.879-0.665-0.33-1.16-0.734-1.482-1.211s-0.484-1.054-0.484-1.732c0-1.071 0.448-1.957 1.344-2.656s2.044-1.048 3.443-1.048c1.516 0 2.732 0.375 3.651 1.123 0.917 0.75 1.375 1.726 1.375 2.932h-1.507c0-0.795-0.334-1.456-0.999-1.984-0.666-0.528-1.505-0.79-2.52-0.79-0.988 0-1.781 0.219-2.38 0.66-0.599 0.439-0.898 1.010-0.898 1.714 0 0.678 0.248 1.203 0.748 1.576 0.498 0.372 1.407 0.714 2.725 1.023 1.319 0.309 2.308 0.64 2.966 0.991s1.146 0.774 1.464 1.267c0.317 0.494 0.477 1.092 0.477 1.795 0 1.147-0.463 2.063-1.388 2.749s-2.134 1.029-3.625 1.029c-1.583 0-2.867-0.383-3.85-1.148-0.985-0.766-1.476-1.735-1.476-2.906h1.508c0.057 0.879 0.429 1.562 1.112 2.053 0.682 0.489 1.585 0.733 2.707 0.733 1.047 0 1.893-0.231 2.539-0.69 0.643-0.462 0.965-1.044 0.965-1.747v0z"></path>
<path d="M256.438 6.651v-3.976h1.32c0.447 0 0.793 0.103 1.035 0.306 0.242 0.204 0.362 0.501 0.362 0.889 0 0.247-0.067 0.463-0.201 0.648-0.134 0.184-0.321 0.323-0.56 0.413l0.937 1.688v0.032h-0.565l-0.863-1.608h-0.936v1.609h-0.529z"></path>
<path d="M253.489 4.723c0-2.322 1.889-4.211 4.209-4.211 2.322 0 4.209 1.888 4.209 4.21s-1.888 4.211-4.209 4.211c-2.322 0-4.209-1.888-4.209-4.21z"></path>
</symbol>
<symbol id="menu" viewBox="0 0 48 32">
<path d="M0 5.333v-5.333h48v5.333h-48zM0 18.667h48v-5.333h-48v5.333zM0 32h48v-5.333h-48v5.333z"></path>
</symbol>
<symbol id="close" viewBox="0 0 32 32">
<path d="M31.439 3.166l-3.166-3.166-12.553 12.553-12.553-12.553-3.166 3.166 12.553 12.553-12.553 12.553 3.166 3.166 12.553-12.553 12.553 12.553 3.166-3.166-12.553-12.553 12.553-12.553z"></path>
</symbol>
<symbol id="comment" viewBox="0 0 30 28">
<path fill="none" stroke="#889099" style="stroke: var(--color1, #889099)" stroke-linejoin="miter" stroke-linecap="butt" stroke-miterlimit="4" stroke-width="1.75" d="M5.25 22.746v-0.875h-2.625c-0.544 0-0.875-0.353-0.875-0.791v-19.208c0-0.571 0.464-0.997 0.875-0.997h24.5c0.411 0 0.875 0.426 0.875 0.997v19.208c0 0.437-0.331 0.791-0.875 0.791h-11.973l-9.591 4.977c-0.128 0.062-0.232 0.097-0.309 0.114-0.001-0.017-0.002-0.037-0.002-0.058v-4.157z"></path>
</symbol>
<symbol id="wifi" viewBox="0 0 29 28">
<path fill="#46b843" style="fill: var(--color1, #46b843)" d="M14.035 26.457v0zM10.315 18.244l-0.967 0.964 0.003 0.003 0.964-0.967zM2.134 14.519l-0.094 1.363 0.002 0 0.091-1.363zM2.134 9.295l0.064-1.364-0.004-0-0.060 1.365zM14.008 14.565l-0.967 0.965 0.001 0.001 0.966-0.966zM19.278 26.453l1.364-0.064-0-0.001-1.364 0.065zM23.345 26.453l-1.365 0.052 0 0.002 1.365-0.054zM2.141 5.218l-0.054 1.365 0.001 0 0.053-1.365zM2.141 0l-0.044 1.365 0.001 0 0.043-1.365zM20.579 8.003l-0.966 0.965 0.001 0.001 0.966-0.966zM28.578 26.453l-1.365 0.043 0 0.002 1.365-0.044zM14.918 25.951c0.156 0 0.28 0.067 0.355 0.141 0.072 0.071 0.118 0.166 0.125 0.275l-2.726 0.179c0.073 1.114 0.984 2.137 2.246 2.137v-2.732zM15.398 26.366c-0.228-3.432-1.67-6.647-4.119-9.089l-1.929 1.934c1.973 1.967 3.137 4.557 3.322 7.336l2.726-0.181zM11.282 17.28c-2.44-2.448-5.642-3.895-9.057-4.124l-0.183 2.726c2.755 0.185 5.334 1.35 7.306 3.327l1.934-1.929zM2.228 13.157c0.181 0.012 0.415 0.167 0.415 0.479h-2.732c0 1.254 1.010 2.17 2.129 2.247l0.187-2.725zM2.643 13.635v-3.505h-2.732v3.505h2.732zM2.643 10.13c0 0.277-0.233 0.545-0.569 0.53l0.12-2.729c-1.275-0.056-2.283 0.977-2.283 2.199h2.732zM2.070 10.659c4.274 0.2 8.13 2.025 10.971 4.871l1.933-1.93c-3.301-3.307-7.793-5.436-12.777-5.67l-0.128 2.729zM13.042 15.531c2.849 2.851 4.667 6.712 4.872 10.988l2.729-0.131c-0.239-4.981-2.358-9.476-5.669-12.788l-1.932 1.931zM17.914 26.517c-0.015-0.323 0.241-0.566 0.533-0.566v2.732c1.234 0 2.255-1.028 2.196-2.294l-2.729 0.128zM18.447 25.951h-3.529v2.732h3.529v-2.732zM24.216 25.951c0.316 0 0.486 0.243 0.494 0.448l-2.73 0.109c0.046 1.147 0.974 2.175 2.236 2.175v-2.732zM24.71 26.401c-0.468-12.216-10.314-22.075-22.516-22.548l-0.106 2.73c10.774 0.418 19.48 9.131 19.893 19.923l2.73-0.105zM2.195 3.853c0.206 0.008 0.448 0.179 0.448 0.494h-2.732c0 1.257 1.024 2.19 2.176 2.235l0.108-2.73zM2.643 4.347v-3.507h-2.732v3.507h2.732zM2.643 0.84c0 0.29-0.238 0.535-0.546 0.525l0.089-2.73c-1.255-0.041-2.274 0.973-2.274 2.205h2.732zM2.098 1.365c6.825 0.216 12.991 3.073 17.516 7.602l1.933-1.931c-4.995-5.001-11.815-8.164-19.362-8.402l-0.086 2.73zM19.614 8.968c4.523 4.521 7.385 10.699 7.599 17.528l2.73-0.086c-0.237-7.551-3.404-14.382-8.398-19.374l-1.931 1.932zM27.213 26.498c-0.010-0.305 0.231-0.546 0.527-0.546v2.732c1.238 0 2.244-1.026 2.203-2.274l-2.73 0.089zM27.74 25.951h-3.524v2.732h3.524v-2.732z"></path>
<path fill="none" stroke="#46b843" style="stroke: var(--color1, #46b843)" stroke-linejoin="miter" stroke-linecap="butt" stroke-miterlimit="4" stroke-width="1.3659" d="M0.683 23.752c0-1.969 1.596-3.565 3.565-3.565s3.565 1.596 3.565 3.565c0 1.969-1.596 3.565-3.565 3.565s-3.565-1.596-3.565-3.565z"></path>
</symbol>
<symbol id="bell" viewBox="0 0 27 28">
<path fill="none" stroke="#46b843" style="stroke: var(--color1, #46b843)" stroke-linejoin="miter" stroke-linecap="butt" stroke-miterlimit="4" stroke-width="1.4" d="M23.495 16.183v0.162l2.821 5.776c0.092 0.187 0.081 0.409-0.030 0.586s-0.304 0.285-0.513 0.285h-8.756v0.827c0 1.923-1.559 3.481-3.482 3.481s-3.482-1.559-3.482-3.481v-0.827h-8.75c-0.209-0-0.403-0.108-0.513-0.285v0c-0.11-0.177-0.122-0.399-0.030-0.586l0-0.001 2.821-5.775v-5.534h0l-0-0.008c-0.045-4.062 2.437-7.725 6.226-9.19l0.005-0.002 0.005-0.002 0-0 0.002-0.001 0.013-0.005c0.012-0.005 0.032-0.012 0.058-0.022 0.052-0.020 0.131-0.049 0.232-0.084 0.202-0.071 0.493-0.166 0.841-0.261 0.703-0.192 1.609-0.375 2.481-0.375 0.874 0 1.828 0.184 2.583 0.378 0.373 0.096 0.689 0.192 0.91 0.263 0.11 0.036 0.197 0.065 0.255 0.085 0.029 0.010 0.051 0.018 0.065 0.023l0.012 0.004c3.758 1.503 6.223 5.142 6.224 9.19 0 0 0 0 0 0v5.378z"></path>
</symbol>
<symbol id="bitcoin" viewBox="0 0 93 28">
<path fill="#889099" style="fill: var(--color1, #889099)" d="M27.767 8.774c-0.216 0-0.497 0.038-0.884 0.12-0.361 0.082-0.692 0.253-0.983 0.507l-1.598 6.604c0.095 0.016 0.178 0.032 0.254 0.047 0.065 0.015 0.14 0.027 0.228 0.037 0.082 0.009 0.175 0.014 0.292 0.014 0.051 0 0.108-0 0.171-0 0.079-0 0.167-0.001 0.266-0.001 0.561 0 1.099-0.138 1.599-0.409 0.498-0.27 0.935-0.639 1.298-1.096 0.363-0.46 0.652-0.983 0.859-1.556 0.21-0.577 0.316-1.185 0.316-1.808 0-0.768-0.131-1.376-0.389-1.807s-0.738-0.651-1.429-0.651zM25.2 19.066c-0.17 0-0.449-0.004-0.765-0.012-0.354-0.007-0.774-0.043-1.246-0.107-0.47-0.065-0.971-0.163-1.491-0.291-0.52-0.126-1.022-0.304-1.491-0.53l4.192-17.522 3.755-0.58-1.502 6.218c0.321-0.144 0.647-0.256 0.968-0.337 0.331-0.080 0.682-0.121 1.043-0.121 0.771 0 1.447 0.138 2.011 0.41 0.56 0.272 1.034 0.646 1.408 1.11 0.37 0.467 0.646 1.019 0.822 1.639 0.176 0.627 0.266 1.309 0.266 2.024 0 1.106-0.208 2.165-0.617 3.146-0.409 0.983-0.975 1.851-1.684 2.58-0.705 0.726-1.553 1.309-2.52 1.734-0.96 0.424-2.019 0.639-3.147 0.639z"></path>
<path fill="#889099" style="fill: var(--color1, #889099)" d="M38.808 4.508c-0.499 0-0.955-0.15-1.357-0.445-0.403-0.294-0.608-0.752-0.608-1.363 0-0.333 0.069-0.653 0.206-0.951 0.137-0.296 0.321-0.556 0.546-0.772 0.225-0.215 0.49-0.389 0.786-0.519 0.299-0.128 0.621-0.192 0.959-0.192 0.499 0 0.955 0.15 1.356 0.445 0.402 0.297 0.606 0.756 0.606 1.362 0 0.338-0.070 0.659-0.207 0.953-0.136 0.298-0.314 0.551-0.544 0.773-0.222 0.213-0.487 0.386-0.788 0.517-0.297 0.129-0.61 0.192-0.955 0.192zM37.062 18.729h-3.586l3.028-12.678h3.611l-3.053 12.678z"></path>
<path fill="#889099" style="fill: var(--color1, #889099)" d="M43.256 2.899l3.76-0.579-0.924 3.735h4.026l-0.727 2.939h-4.002l-1.066 4.434c-0.098 0.37-0.154 0.715-0.169 1.035-0.017 0.322 0.023 0.599 0.12 0.832s0.27 0.413 0.522 0.541c0.25 0.129 0.609 0.194 1.079 0.194 0.387 0 0.764-0.036 1.129-0.109 0.362-0.071 0.73-0.171 1.102-0.301l0.268 2.749c-0.485 0.177-1.010 0.329-1.576 0.457-0.567 0.129-1.238 0.192-2.013 0.192-1.115 0-1.98-0.164-2.596-0.492-0.615-0.33-1.050-0.781-1.31-1.351-0.257-0.568-0.371-1.224-0.339-1.962 0.034-0.74 0.146-1.519 0.339-2.338l2.379-9.974z"></path>
<path fill="#889099" style="fill: var(--color1, #889099)" d="M49.954 13.668c0-1.093 0.178-2.123 0.533-3.088 0.354-0.965 0.865-1.809 1.529-2.534 0.661-0.721 1.465-1.292 2.412-1.711 0.943-0.417 1.998-0.628 3.161-0.628 0.728 0 1.378 0.068 1.951 0.205 0.575 0.138 1.095 0.317 1.565 0.542l-1.237 2.8c-0.323-0.13-0.659-0.245-1.006-0.35-0.347-0.106-0.771-0.157-1.272-0.157-1.197 0-2.144 0.41-2.848 1.229-0.701 0.819-1.055 1.922-1.055 3.305 0 0.82 0.178 1.482 0.534 1.99 0.355 0.507 1.010 0.759 1.963 0.759 0.47 0 0.923-0.049 1.358-0.144 0.438-0.096 0.824-0.217 1.164-0.361l0.268 2.869c-0.454 0.176-0.954 0.334-1.503 0.472-0.55 0.134-1.205 0.203-1.964 0.203-1.002 0-1.851-0.145-2.544-0.433-0.694-0.292-1.268-0.679-1.72-1.17-0.454-0.492-0.781-1.067-0.982-1.726-0.202-0.657-0.305-1.349-0.305-2.071v0z"></path>
<path fill="#889099" style="fill: var(--color1, #889099)" d="M67.676 8.751c-0.529 0-1.002 0.154-1.405 0.457-0.401 0.305-0.743 0.694-1.016 1.157-0.272 0.46-0.48 0.975-0.62 1.531-0.136 0.549-0.205 1.080-0.205 1.578 0 0.797 0.13 1.43 0.386 1.882 0.26 0.447 0.733 0.674 1.406 0.674 0.532 0 1.005-0.154 1.406-0.459 0.401-0.303 0.743-0.692 1.016-1.156 0.273-0.46 0.482-0.975 0.621-1.531 0.136-0.555 0.205-1.086 0.205-1.578 0-0.798-0.131-1.431-0.388-1.881-0.257-0.447-0.73-0.674-1.406-0.674zM65.884 19.066c-0.85 0-1.6-0.13-2.229-0.385-0.628-0.257-1.154-0.622-1.562-1.085-0.407-0.46-0.721-1.016-0.932-1.651-0.208-0.621-0.313-1.329-0.313-2.106 0-0.964 0.158-1.937 0.47-2.895 0.312-0.959 0.781-1.834 1.395-2.602 0.604-0.763 1.361-1.401 2.251-1.895 0.884-0.487 1.911-0.734 3.051-0.734 0.833 0 1.58 0.13 2.22 0.386 0.632 0.256 1.161 0.621 1.574 1.085 0.412 0.469 0.726 1.025 0.931 1.652 0.209 0.627 0.315 1.336 0.315 2.107 0 0.955-0.154 1.929-0.459 2.895-0.304 0.958-0.761 1.833-1.358 2.602-0.593 0.766-1.346 1.403-2.24 1.892-0.894 0.487-1.942 0.734-3.115 0.734z"></path>
<path fill="#889099" style="fill: var(--color1, #889099)" d="M78.705 4.508c-0.498 0-0.954-0.15-1.356-0.445-0.403-0.296-0.608-0.754-0.608-1.363 0-0.331 0.070-0.651 0.207-0.951 0.135-0.295 0.319-0.554 0.546-0.772 0.221-0.212 0.486-0.387 0.787-0.519 0.296-0.128 0.617-0.192 0.956-0.192 0.5 0 0.957 0.15 1.358 0.445 0.403 0.297 0.607 0.755 0.607 1.362 0 0.33-0.070 0.651-0.208 0.953-0.134 0.295-0.312 0.548-0.543 0.773-0.228 0.216-0.493 0.389-0.786 0.517-0.298 0.129-0.612 0.192-0.96 0.192zM76.963 18.729h-3.589l3.028-12.678h3.613l-3.052 12.678z"></path>
<path fill="#889099" style="fill: var(--color1, #889099)" d="M82.602 6.627c0.272-0.079 0.576-0.175 0.907-0.278 0.332-0.104 0.702-0.2 1.116-0.287 0.41-0.089 0.872-0.161 1.38-0.219s1.087-0.085 1.731-0.085c1.891 0 3.195 0.548 3.915 1.641 0.719 1.093 0.844 2.589 0.376 4.485l-1.649 6.849h-3.609l1.599-6.705c0.097-0.419 0.174-0.824 0.23-1.219 0.057-0.391 0.054-0.737-0.013-1.036-0.063-0.295-0.214-0.537-0.446-0.724-0.237-0.185-0.595-0.277-1.080-0.277-0.467 0-0.943 0.050-1.429 0.147l-2.351 9.814h-3.611l2.932-12.106z"></path>
<path fill="#889099" style="fill: var(--color1, #889099)" d="M41.065 23.399c-0.166 0.242-0.376 0.557-0.625 0.939-0.257 0.397-0.542 0.864-0.846 1.389h1.78c-0.037-0.371-0.081-0.759-0.132-1.15-0.050-0.379-0.11-0.776-0.176-1.178zM42.272 27.557h-0.703c-0.023-0.209-0.044-0.414-0.065-0.647-0.020-0.231-0.041-0.436-0.064-0.625h-2.168l-0.704 1.27h-0.761c0.538-0.964 1.066-1.858 1.569-2.657 0.503-0.8 1.012-1.572 1.511-2.293h0.683c0.075 0.373 0.141 0.737 0.197 1.083 0.063 0.382 0.122 0.767 0.175 1.146 0.059 0.406 0.114 0.835 0.166 1.273 0.048 0.407 0.1 0.867 0.165 1.449l0 0.001z"></path>
<path fill="#889099" style="fill: var(--color1, #889099)" d="M44.812 27.665c-0.311 0-0.586-0.045-0.823-0.136s-0.435-0.219-0.593-0.386c-0.158-0.166-0.277-0.368-0.356-0.604s-0.119-0.502-0.119-0.797c0-0.429 0.068-0.839 0.205-1.229s0.331-0.735 0.582-1.036c0.252-0.3 0.555-0.54 0.909-0.719s0.749-0.268 1.186-0.268c0.374 0 0.672 0.038 0.895 0.114s0.382 0.148 0.478 0.214l-0.287 0.572c-0.111-0.071-0.26-0.139-0.449-0.204s-0.413-0.096-0.672-0.096c-0.331 0-0.628 0.077-0.891 0.233s-0.486 0.355-0.668 0.6c-0.182 0.245-0.321 0.522-0.417 0.829s-0.144 0.611-0.144 0.911c0 0.929 0.405 1.394 1.214 1.394 0.173 0 0.327-0.013 0.464-0.036s0.257-0.051 0.363-0.082c0.105-0.031 0.199-0.065 0.28-0.104s0.153-0.071 0.216-0.1l0.086 0.6c-0.058 0.033-0.133 0.069-0.226 0.107s-0.202 0.074-0.327 0.108c-0.125 0.033-0.264 0.061-0.417 0.082s-0.316 0.032-0.489 0.032h0z"></path>
<path fill="#889099" style="fill: var(--color1, #889099)" d="M48.85 27.665c-0.311 0-0.584-0.045-0.821-0.136s-0.434-0.219-0.591-0.386c-0.158-0.166-0.276-0.368-0.355-0.604s-0.118-0.502-0.118-0.797c0-0.429 0.068-0.839 0.204-1.229s0.33-0.735 0.58-1.036c0.251-0.3 0.553-0.54 0.907-0.719s0.747-0.268 1.182-0.268c0.373 0 0.67 0.038 0.892 0.114s0.381 0.148 0.476 0.214l-0.287 0.572c-0.11-0.071-0.259-0.139-0.448-0.204s-0.412-0.096-0.67-0.096c-0.33 0-0.626 0.077-0.889 0.233s-0.485 0.355-0.667 0.6c-0.182 0.245-0.32 0.522-0.416 0.829s-0.143 0.611-0.143 0.911c0 0.929 0.404 1.394 1.211 1.394 0.172 0 0.326-0.013 0.462-0.036s0.257-0.051 0.362-0.082c0.105-0.031 0.198-0.065 0.28-0.104s0.153-0.071 0.215-0.1l0.086 0.6c-0.057 0.033-0.133 0.069-0.226 0.107s-0.202 0.074-0.326 0.108c-0.124 0.033-0.263 0.061-0.416 0.082s-0.315 0.032-0.487 0.032v0z"></path>
<path fill="#889099" style="fill: var(--color1, #889099)" d="M50.782 27.555l1.191-4.953h2.935l-0.136 0.579h-2.246l-0.359 1.494h1.995l-0.136 0.565h-1.988l-0.423 1.737h2.411l-0.136 0.579h-3.107z"></path>
<path fill="#889099" style="fill: var(--color1, #889099)" d="M56.898 23.142c-0.338 0-0.545 0.010-0.617 0.028l-0.474 1.965h0.453c0.199 0 0.407-0.018 0.617-0.054s0.401-0.099 0.567-0.189c0.168-0.090 0.306-0.217 0.413-0.376 0.109-0.161 0.162-0.362 0.162-0.617 0-0.269-0.101-0.465-0.301-0.583-0.2-0.116-0.476-0.174-0.819-0.174zM55.225 27.556h-0.696l1.177-4.886c0.2-0.047 0.415-0.078 0.639-0.092s0.438-0.022 0.638-0.022c0.577 0 1.018 0.111 1.31 0.329 0.293 0.218 0.442 0.54 0.442 0.957 0 0.324-0.062 0.607-0.184 0.84s-0.296 0.43-0.52 0.583c-0.223 0.151-0.496 0.265-0.812 0.338-0.313 0.074-0.668 0.111-1.055 0.111h-0.496l-0.445 1.843z"></path>
<path fill="#889099" style="fill: var(--color1, #889099)" d="M62.978 22.602l-0.136 0.579h-1.499l-1.054 4.374h-0.696l1.054-4.374h-1.499l0.136-0.579h3.693z"></path>
<path fill="#889099" style="fill: var(--color1, #889099)" d="M62.339 27.555l1.191-4.953h2.935l-0.136 0.579h-2.246l-0.359 1.494h1.995l-0.136 0.565h-1.988l-0.423 1.737h2.411l-0.136 0.579h-3.107z"></path>
<path fill="#889099" style="fill: var(--color1, #889099)" d="M68.475 23.142c-0.357 0-0.575 0.010-0.646 0.028l-0.919 3.815c0.037 0.009 0.102 0.018 0.193 0.024 0.095 0.008 0.245 0.012 0.445 0.012 0.376 0 0.721-0.064 1.024-0.189s0.562-0.303 0.772-0.529c0.209-0.225 0.373-0.496 0.488-0.806s0.172-0.656 0.172-1.025c0-0.416-0.123-0.746-0.366-0.98-0.245-0.232-0.636-0.35-1.163-0.35zM67.37 27.606c-0.194 0-0.408-0.010-0.653-0.029-0.231-0.019-0.439-0.052-0.617-0.1l1.156-4.807c0.197-0.047 0.412-0.079 0.638-0.093 0.234-0.014 0.443-0.021 0.639-0.021 0.734 0 1.289 0.174 1.652 0.518s0.545 0.814 0.545 1.396c0 0.409-0.065 0.806-0.193 1.181s-0.331 0.714-0.604 1.005c-0.272 0.289-0.624 0.522-1.045 0.693s-0.933 0.257-1.518 0.257z"></path>
<path fill="#889099" style="fill: var(--color1, #889099)" d="M76.098 27.555h-0.697l0.553-2.302h-2.305l-0.553 2.302h-0.697l1.192-4.953h0.697l-0.503 2.073h2.306l0.503-2.073h0.697l-1.193 4.953z"></path>
<path fill="#889099" style="fill: var(--color1, #889099)" d="M77.196 27.555l1.191-4.953h2.935l-0.137 0.579h-2.246l-0.359 1.494h1.995l-0.137 0.565h-1.988l-0.423 1.737h2.411l-0.137 0.579h-3.106z"></path>
<path fill="#889099" style="fill: var(--color1, #889099)" d="M83.312 23.142c-0.338 0-0.545 0.009-0.617 0.028l-0.453 1.872h0.424c0.193 0 0.395-0.014 0.603-0.043 0.206-0.028 0.395-0.085 0.564-0.168 0.17-0.083 0.31-0.201 0.416-0.35 0.108-0.15 0.163-0.351 0.163-0.596 0-0.266-0.103-0.458-0.306-0.571-0.201-0.114-0.469-0.172-0.794-0.172zM81.639 27.556h-0.001l-0.695-0.001 1.178-4.886c0.205-0.048 0.42-0.079 0.638-0.092 0.229-0.014 0.444-0.021 0.638-0.021 0.53 0 0.955 0.108 1.264 0.321s0.466 0.53 0.466 0.943c0 0.418-0.124 0.772-0.37 1.053-0.246 0.282-0.595 0.488-1.037 0.611 0.059 0.103 0.127 0.232 0.202 0.382 0.074 0.149 0.154 0.322 0.236 0.514 0.082 0.189 0.162 0.386 0.237 0.585 0.073 0.192 0.14 0.39 0.2 0.588l-0.71 0.002c-0.067-0.182-0.136-0.366-0.208-0.549-0.064-0.167-0.136-0.343-0.218-0.537-0.080-0.184-0.153-0.342-0.223-0.482-0.066-0.135-0.135-0.268-0.205-0.396l-0.006 0c-0.061 0.004-0.121 0.008-0.181 0.010-0.062 0.002-0.124 0.003-0.187 0.003h-0.552l-0.467 1.951z"></path>
<path fill="#889099" style="fill: var(--color1, #889099)" d="M85.184 27.555l1.191-4.953h2.935l-0.137 0.579h-2.246l-0.359 1.494h1.995l-0.137 0.565h-1.988l-0.423 1.737h2.411l-0.137 0.579h-3.106z"></path>
<path fill="#889099" style="fill: var(--color1, #889099)" d="M11.18 8.886c-0.503 0-1.042-0.143-1.399-0.238-0.065-0.017-0.123-0.033-0.172-0.045l0.523-2.086c0.060 0.015 0.133 0.031 0.217 0.049 0.537 0.118 1.536 0.338 1.885 0.901 0.127 0.205 0.159 0.442 0.093 0.703-0.119 0.475-0.505 0.716-1.147 0.716zM10.71 12.304c-0.616 0-1.318-0.185-1.737-0.295-0.076-0.020-0.145-0.038-0.203-0.053l0.576-2.301c0.072 0.018 0.159 0.037 0.26 0.060 0.66 0.148 1.888 0.422 2.293 1.080 0.136 0.22 0.17 0.469 0.102 0.741-0.127 0.509-0.562 0.768-1.291 0.768zM8.427 13.214h0.001c0.294 0.079 0.567 0.149 0.836 0.215l-0.429 1.71 1.050 0.26 0.435-1.732c0.536 0.1 0.985 0.149 1.372 0.149 1.217 0 1.958-0.496 2.333-1.56 0.413-1.174 0.106-1.979-0.965-2.535 0.765-0.174 1.216-0.69 1.342-1.534 0.164-1.090-0.505-1.853-2.105-2.402l0.429-1.718-1.050-0.26-0.419 1.672c-0.231-0.057-0.49-0.118-0.841-0.196l0.421-1.683-1.049-0.26-0.431 1.717-0.111-0.025c-0.18-0.041-0.372-0.085-0.56-0.132l-1.447-0.364-0.28 1.116c0.28 0.064 0.754 0.174 0.763 0.187 0.429 0.108 0.503 0.391 0.489 0.609l-0.49 1.955 0.008 0.001 0.010 0.003c0.027 0.008 0.057 0.017 0.092 0.032-0.027-0.007-0.054-0.014-0.086-0.022l-0.026-0.006-0.687 2.74c-0.041 0.099-0.142 0.264-0.357 0.264-0.040 0-0.082-0.005-0.125-0.016-0.044 0-0.757-0.187-0.763-0.189l-0.522 1.196 1.366 0.339c0.177 0.044 0.353 0.089 0.525 0.134l0.224 0.058-0.435 1.736 1.049 0.261 0.432-1.717v-0.001zM10.182 19.066c-5.276 0-9.569-4.271-9.569-9.52s4.292-9.52 9.569-9.52c5.277 0 9.57 4.271 9.57 9.52s-4.293 9.52-9.57 9.52z"></path>
</symbol>
<symbol id="ms-card" viewBox="0 0 36 28">
<path fill="#889099" style="fill: var(--color1, #889099)" d="M19.807 27.545v-2.893h0.623v0.351c0.158-0.27 0.45-0.433 0.763-0.424l-0.012-0.012c0.153 0 0.304 0.027 0.448 0.079l-0.194 0.605c-0.125-0.050-0.259-0.075-0.394-0.073-0.399 0-0.605 0.267-0.605 0.744v1.622h-0.629zM28.549 27.545v-2.893h0.624v0.351c0.157-0.27 0.45-0.433 0.762-0.424l-0.012-0.012c0.153 0 0.304 0.027 0.448 0.079l-0.193 0.605c-0.125-0.050-0.259-0.075-0.394-0.073-0.399 0-0.605 0.267-0.605 0.744v1.622h-0.63zM5.787 25.947c0-0.49-0.206-0.762-0.635-0.762-0.202-0.010-0.397 0.070-0.534 0.219s-0.201 0.35-0.174 0.55v1.604h-0.636v-1.61c0-0.49-0.212-0.762-0.63-0.762-0.202-0.011-0.398 0.069-0.535 0.218s-0.2 0.351-0.173 0.551v1.591h-0.635v-2.893h0.63v0.357c0.186-0.284 0.508-0.447 0.847-0.43 0.389-0.017 0.756 0.181 0.956 0.514 0.22-0.344 0.61-0.541 1.017-0.514 0.309-0.018 0.611 0.097 0.829 0.318s0.33 0.523 0.309 0.832v1.815l-0.635 0.012v-1.61zM8.435 27.605c-0.836 0-1.513-0.677-1.513-1.513s0.677-1.513 1.513-1.513c0.353-0.013 0.691 0.144 0.908 0.424v-0.351h0.63v2.881h-0.63v-0.351c-0.208 0.268-0.529 0.424-0.867 0.424-0.014 0-0.027-0-0.041-0.001zM26.183 27.605c-0.835 0-1.513-0.677-1.513-1.513s0.677-1.513 1.513-1.513c0.353-0.013 0.691 0.144 0.908 0.424v-0.351h0.629v2.881h-0.629v-0.351c-0.209 0.268-0.529 0.424-0.867 0.424-0.014 0-0.027-0-0.041-0.001zM32.038 27.605c-0.835 0-1.513-0.677-1.513-1.513s0.677-1.513 1.513-1.513c0.353-0.013 0.691 0.144 0.908 0.424v-1.513h0.605v4.043h-0.605v-0.351c-0.208 0.268-0.528 0.424-0.867 0.424-0.014 0-0.027-0-0.041-0.001zM17.825 27.605c-0.836 0.012-1.523-0.656-1.534-1.492s0.656-1.523 1.492-1.534l0.009 0.006c0.811 0 1.374 0.605 1.374 1.513 0 0.084 0 0.163 0 0.242h-2.149c0.049 0.431 0.433 0.745 0.866 0.708 0.306-0.004 0.602-0.111 0.841-0.302l0.303 0.466c-0.314 0.257-0.707 0.396-1.111 0.396-0.030 0-0.060-0.001-0.090-0.002zM22.263 27.19c-0.294-0.288-0.453-0.687-0.437-1.098v-0.012c-0.016-0.411 0.143-0.809 0.437-1.098s0.695-0.439 1.106-0.415c0.378-0.019 0.749 0.104 1.041 0.345l-0.302 0.508c-0.218-0.166-0.483-0.257-0.756-0.26-0.483 0.039-0.854 0.442-0.854 0.926s0.372 0.887 0.854 0.926c0.273-0.003 0.539-0.094 0.756-0.26l0.302 0.508c-0.292 0.241-0.663 0.364-1.041 0.345-0.028 0.002-0.055 0.002-0.083 0.002-0.381 0-0.749-0.149-1.023-0.418zM10.571 27.242l0.303-0.49c0.278 0.206 0.616 0.313 0.962 0.303 0.43 0 0.66-0.127 0.66-0.351 0-0.163-0.164-0.254-0.509-0.302l-0.302-0.042c-0.647-0.091-0.999-0.381-0.999-0.853 0-0.575 0.478-0.926 1.211-0.926 0.414-0.014 0.824 0.091 1.18 0.302l-0.278 0.508c-0.276-0.159-0.589-0.244-0.908-0.248-0.345 0-0.551 0.145-0.551 0.339s0.218 0.248 0.49 0.284l0.302 0.042c0.63 0.091 1.011 0.315 1.011 0.866s-0.484 0.944-1.32 0.944c-0.020 0.001-0.039 0.001-0.059 0.001-0.427 0-0.843-0.131-1.194-0.376zM15.171 27.629c-0.744 0-1.005-0.399-1.005-1.071v-1.332h-0.587v-0.575h0.575v-0.878h0.636v0.878h1.035l0.006 0.575h-1.029v1.32c0 0.29 0.115 0.484 0.417 0.484 0.197-0.007 0.388-0.063 0.557-0.163l0.182 0.538c-0.235 0.146-0.505 0.224-0.782 0.224-0.002 0-0.003 0-0.005 0zM34.329 27.52c-0.031-0.071-0.031-0.152 0-0.224 0.016-0.034 0.037-0.064 0.063-0.091s0.059-0.047 0.094-0.061c0.039-0.016 0.081-0.023 0.124-0.021h-0.004c0.037 0 0.075 0.007 0.109 0.021s0.066 0.035 0.094 0.061c0.027 0.026 0.048 0.057 0.063 0.091 0.031 0.072 0.031 0.153 0 0.224-0.016 0.034-0.037 0.065-0.063 0.091s-0.059 0.046-0.094 0.061c-0.036 0.016-0.075 0.024-0.115 0.024-0.117-0.001-0.223-0.069-0.272-0.176z"></path>
<path fill="#889099" style="fill: var(--color1, #889099)" opacity="0.4" d="M13.473 11.173c-0.004-3.344 1.531-6.503 4.161-8.568-4.467-3.511-10.882-2.999-14.736 1.175s-3.854 10.609 0 14.783 10.269 4.685 14.736 1.175c-2.629-2.064-4.164-5.222-4.161-8.564z"></path>
<path fill="#889099" style="fill: var(--color1, #889099)" d="M35.259 11.175c-0 4.171-2.381 7.975-6.132 9.798s-8.213 1.343-11.492-1.235c2.628-2.065 4.162-5.223 4.162-8.565s-1.534-6.5-4.162-8.565c3.278-2.578 7.741-3.057 11.492-1.235s6.132 5.627 6.132 9.798v0.003z"></path>
<path fill="#889099" style="fill: var(--color1, #889099)" opacity="0.65" d="M17.731 20.019c-2.62-2.018-4.308-5.187-4.308-8.749s1.688-6.731 4.308-8.749c2.62 2.018 4.308 5.187 4.308 8.749s-1.688 6.731-4.308 8.749z"></path>
<path fill="#889099" style="fill: var(--color1, #889099)" d="M34.157 17.922v-0.351h-0.154v-0.073h0.36v0.073h-0.142v0.351h-0.064zM34.856 17.604l-0.118 0.275h-0.081l-0.118-0.275v0.317h-0.079v-0.424h0.097l0.127 0.302 0.127-0.302h0.109v0.424l-0.063 0.003v-0.32z"></path>
</symbol>
<symbol id="okpay" viewBox="0 0 117 28">
<path fill="#889099" style="fill: var(--color1, #889099)" d="M114.51 2.179h-1.756c-1.124 0-1.958 0.755-2.604 1.675l-1.737 2.477c-0.001 0.001-0.001 0.002-0.002 0.003l-3.762 5.362-3.262-4.646c-0.015-0.023-0.023-0.045-0.040-0.069l-2.197-3.122c-0.648-0.92-1.49-1.673-2.614-1.673h-1.628c-1.123 0-1.851 0.752-1.201 1.67l2.21 3.128c0.005 0.006 0.011 0.012 0.016 0.019l6.291 8.888v10.062c0 1.127 0.92 2.046 2.043 2.045l0.761-0.002c1.124-0.001 2.043-0.925 2.043-2.052v-10.064l6.702-9.466c0.021-0.027 0.048-0.054 0.068-0.082l1.752-2.483c0.65-0.92 0.039-1.672-1.085-1.672z"></path>
<path fill="#889099" style="fill: var(--color1, #889099)" d="M41.153 14.278l6.316-6.081c0.029-0.026 4.464-4.297 4.464-4.297 0.798-0.77-0.061-1.721-1.154-1.721h-2.401c-1.093 0-1.646 0.631-2.442 1.404l-4.675 4.533c-0.004 0.004-0.007 0.008-0.011 0.013l-3.008 2.917v-3.307h-0.013c0.003-0.044 0.013-0.088 0.013-0.132v-3.378c0-1.127-0.894-2.050-1.988-2.050h-0.893c-1.093 0-1.988 0.923-1.988 2.050v3.378c0 0.044 0.010 0.088 0.013 0.132h-0.013v18.212c0 1.127 0.895 2.049 1.988 2.049h0.893c1.094 0 1.988-0.923 1.988-2.049v-8.155l4.286 4.411h0.005l4.219 4.346c0.774 0.796 1.307 1.447 2.401 1.447h2.404c1.093 0 1.559-1.333 0.785-2.129l-11.188-11.593z"></path>
<path fill="#889099" style="fill: var(--color1, #889099)" d="M86.336 9.098c-0.147 0-0.285 0.139-0.388 0.392l-2.598 6.37c-0.102 0.252-0.092 0.49 0.029 0.67s0.338 0.278 0.611 0.278h4.705c0.275 0 0.492-0.099 0.613-0.28 0.12-0.179 0.13-0.417 0.026-0.668l-2.611-6.371c-0.103-0.252-0.241-0.39-0.388-0.39zM97.13 28.001h-1.617c-1.239 0-1.888-1.045-2.215-1.922l-0.237-0.634-1.478-3.938-0.101-0.21-0.134-0.353h-9.99l-1.652 4.393h-0.011l-0.276 0.742c-0.353 0.95-0.872 1.922-2.054 1.922h-1.828c-0.548 0-0.984-0.199-1.228-0.561-0.243-0.36-0.264-0.836-0.060-1.34l0.308-0.763 8.169-20.29h0.014l0.381-0.955c0.417-1.051 1.679-1.905 2.814-1.905h0.815c1.133 0 2.397 0.854 2.818 1.903l0.385 0.958 8.208 20.398h-0.013l0.266 0.657c0.205 0.504 0.185 0.98-0.057 1.339-0.243 0.362-0.679 0.56-1.227 0.56z"></path>
<path fill="#889099" style="fill: var(--color1, #889099)" d="M65.882 6.287c-0.576 0-1.044 0.46-1.044 1.025v5.746c0 0.565 0.469 1.025 1.044 1.025h2.68c1.449 0 2.568-0.34 3.326-1.009 0.37-0.328 0.642-0.721 0.833-1.203 0.189-0.489 0.284-1.059 0.284-1.694 0-0.629-0.096-1.194-0.284-1.677-0.189-0.48-0.462-0.873-0.834-1.201-0.758-0.671-1.877-1.011-3.325-1.011h-2.68zM62.751 28.001h-0.815c-1.15 0-2.086-0.919-2.086-2.050v-21.715c0-1.13 0.936-2.050 2.086-2.050h6.625c3.092 0 5.488 0.681 7.122 2.024 0.828 0.682 1.46 1.537 1.877 2.541 0.413 0.992 0.623 2.144 0.623 3.424 0 1.291-0.21 2.451-0.623 3.448-0.416 1.005-1.048 1.86-1.879 2.542-1.629 1.338-4.025 2.016-7.12 2.016h-3.724v7.769c0 1.13-0.936 2.050-2.086 2.050z"></path>
<path fill="#889099" style="fill: var(--color1, #889099)" d="M13.103 6.877c-0.886 1.103-1.498 2.515-1.82 4.197l-0.246 2.15c-0.004 0.083-0.007 0.281-0.007 0.517 0 0.316 0.004 0.654 0.010 0.927 0.003 0.312 0.010 0.571 0.020 0.693l0.319 2.15c0.349 1.491 0.93 2.746 1.728 3.731 0.697 0.867 1.479 1.49 2.388 1.905 0.919 0.421 1.941 0.626 3.126 0.626 1.183 0 2.203-0.205 3.119-0.626 0.909-0.418 1.685-1.039 2.372-1.898 1.38-1.73 2.079-4.146 2.079-7.181 0-3.044-0.699-5.465-2.079-7.195-0.687-0.861-1.462-1.482-2.372-1.898-0.918-0.422-1.938-0.627-3.119-0.627-1.183 0-2.205 0.205-3.126 0.627-0.917 0.417-1.698 1.040-2.388 1.905l-0.003 0.003v-0.007zM18.651 28.001h-0.062c-3.827 0-6.942-1.285-9.258-3.819-1.585-1.737-2.639-3.94-3.133-6.548l-0.28-2.205v-0.014c-0.022-0.363-0.048-0.844-0.048-1.347 0-0.276 0.013-0.531 0.026-0.777l0.005-0.102v-0.014l0.206-2.198c0.445-2.806 1.53-5.17 3.224-7.024 2.312-2.543 5.427-3.832 9.258-3.832h0.062c3.816 0 6.921 1.289 9.23 3.832 2.29 2.513 3.451 5.916 3.451 10.115 0 4.182-1.161 7.581-3.451 10.101-2.309 2.543-5.414 3.832-9.23 3.832z"></path>
<path fill="#889099" style="fill: var(--color1, #889099)" d="M18.554 12.516h-16.75l1.576-3.099h16.75l-1.576 3.099z"></path>
<path fill="#889099" style="fill: var(--color1, #889099)" d="M15.408 18.701h-14.63l1.66-3.085h14.63l-1.66 3.085z"></path>
</symbol>
<symbol id="paypal" viewBox="0 0 36 28">
<path d="M11.641 14.156c0 0.766-0.609 1.344-1.375 1.344-0.578 0-1-0.328-1-0.938 0-0.766 0.594-1.375 1.359-1.375 0.578 0 1.016 0.359 1.016 0.969zM23.906 11.828c0 0.938-0.562 1.125-1.375 1.125l-0.5 0.016 0.266-1.672c0.016-0.109 0.094-0.172 0.203-0.172h0.281c0.531 0 1.125 0.031 1.125 0.703zM29.391 14.156c0 0.766-0.609 1.344-1.359 1.344-0.578 0-1.016-0.328-1.016-0.938 0-0.766 0.594-1.375 1.359-1.375 0.578 0 1.016 0.359 1.016 0.969zM8.016 11.484c0-1.313-1.016-1.75-2.172-1.75h-2.5c-0.156 0-0.313 0.125-0.328 0.297l-1.016 6.375c-0.016 0.125 0.078 0.25 0.203 0.25h1.188c0.172 0 0.328-0.125 0.344-0.297l0.281-1.719c0.063-0.453 0.828-0.297 1.125-0.297 1.781 0 2.875-1.062 2.875-2.859zM12.844 16.359l0.641-4.078c0.016-0.125-0.078-0.25-0.203-0.25h-1.188c-0.234 0-0.25 0.344-0.266 0.516-0.359-0.531-0.891-0.625-1.484-0.625-1.531 0-2.703 1.344-2.703 2.828 0 1.219 0.766 2.016 1.984 2.016 0.562 0 1.266-0.25 1.656-0.688-0.031 0.094-0.063 0.234-0.063 0.328 0 0.141 0.063 0.25 0.203 0.25h1.078c0.172 0 0.313-0.125 0.344-0.297zM19.828 12.25c0-0.109-0.094-0.219-0.203-0.219h-1.203c-0.109 0-0.219 0.063-0.281 0.156l-1.656 2.438-0.688-2.344c-0.047-0.141-0.187-0.25-0.344-0.25h-1.172c-0.109 0-0.203 0.109-0.203 0.219 0 0.078 1.219 3.609 1.328 3.938-0.172 0.234-1.281 1.687-1.281 1.875 0 0.109 0.094 0.203 0.203 0.203h1.203c0.109 0 0.219-0.063 0.281-0.156l3.984-5.75c0.031-0.031 0.031-0.063 0.031-0.109zM25.766 11.484c0-1.313-1.016-1.75-2.172-1.75h-2.484c-0.172 0-0.328 0.125-0.344 0.297l-1.016 6.375c-0.016 0.125 0.078 0.25 0.203 0.25h1.281c0.125 0 0.219-0.094 0.25-0.203l0.281-1.813c0.063-0.453 0.828-0.297 1.125-0.297 1.781 0 2.875-1.062 2.875-2.859zM30.594 16.359l0.641-4.078c0.016-0.125-0.078-0.25-0.203-0.25h-1.188c-0.234 0-0.25 0.344-0.266 0.516-0.344-0.531-0.875-0.625-1.484-0.625-1.531 0-2.703 1.344-2.703 2.828 0 1.219 0.766 2.016 1.984 2.016 0.578 0 1.281-0.25 1.656-0.688-0.016 0.094-0.063 0.234-0.063 0.328 0 0.141 0.063 0.25 0.203 0.25h1.078c0.172 0 0.313-0.125 0.344-0.297zM34 9.969v-0.016c0-0.125-0.094-0.219-0.203-0.219h-1.156c-0.094 0-0.187 0.078-0.203 0.172l-1.016 6.5-0.016 0.031c0 0.109 0.094 0.219 0.219 0.219h1.031c0.156 0 0.313-0.125 0.328-0.297zM6.125 12.063c-0.125 0.797-0.656 0.891-1.344 0.891l-0.516 0.016 0.266-1.672c0.016-0.109 0.109-0.172 0.203-0.172h0.297c0.703 0 1.234 0.094 1.094 0.938zM36 4v20c0 1.094-0.906 2-2 2h-32c-1.094 0-2-0.906-2-2v-20c0-1.094 0.906-2 2-2h32c1.094 0 2 0.906 2 2z"></path>
</symbol>
<symbol id="americanexpress" viewBox="0 0 32 32">
<path  d="M21.353 19.171c0-0.427-0.18-0.661-0.459-0.829-0.28-0.16-0.619-0.18-1.080-0.18h-2.057v3.76h0.9v-1.369h0.96c0.32 0 0.52 0.032 0.637 0.167 0.16 0.173 0.139 0.507 0.139 0.733v0.467h0.88v-0.74c-0.003-0.333-0.023-0.501-0.144-0.688-0.080-0.107-0.24-0.24-0.44-0.312l0.027-0.011c0.24-0.096 0.64-0.396 0.637-0.997zM20.193 19.713l-0.037-0.003c-0.12 0.071-0.26 0.077-0.44 0.077h-1.080v-0.84h1.099c0.16 0 0.32 0 0.44 0.067 0.131 0.064 0.208 0.196 0.2 0.34 0 0.16-0.060 0.287-0.181 0.359zM27.063 21.116h-1.729v0.8h1.739c0.901 0 1.4-0.371 1.4-1.179 0-0.373-0.088-0.597-0.249-0.776-0.204-0.177-0.523-0.257-0.973-0.276l-0.501-0.020c-0.139 0-0.24 0-0.34-0.040-0.12-0.040-0.2-0.14-0.2-0.28 0-0.12 0.023-0.221 0.12-0.28 0.111-0.061 0.236-0.088 0.363-0.080h1.64v-0.803h-1.8c-0.939 0-1.277 0.583-1.277 1.12 0 1.2 1.035 1.14 1.876 1.16 0.139 0 0.24 0.020 0.3 0.080 0.061 0.040 0.109 0.141 0.109 0.24 0 0.103-0.047 0.2-0.107 0.24-0.080 0.071-0.2 0.093-0.369 0.093zM0 0v13.461l1.080-2.501h2.333l0.3 0.619v-0.619h2.724l0.6 1.36 0.583-1.351h8.669c0.393 0 0.747 0.076 1.008 0.315v-0.307h2.383v0.307c0.409-0.227 0.915-0.307 1.493-0.307h3.475l0.32 0.621v-0.621h2.557l0.339 0.62v-0.621h2.477v5.264h-2.515l-0.48-0.8v0.78h-3.137l-0.341-0.84h-0.777l-0.36 0.819h-1.617c-0.64 0-1.12-0.139-1.44-0.32v0.32h-3.853v-1.179c0-0.16-0.040-0.16-0.14-0.18h-0.14v1.381h-7.451v-0.64l-0.28 0.64h-1.556l-0.269-0.64v0.62h-3.004l-0.341-0.832h-0.772l-0.341 0.832h-1.525v15.799h31.715v-9.477c-0.36 0.18-0.817 0.24-1.297 0.24h-2.297v-0.34c-0.28 0.22-0.76 0.34-1.219 0.34h-7.288v-1.2c0-0.16-0.024-0.16-0.16-0.16h-0.1v1.363h-2.4v-1.421c-0.397 0.181-0.857 0.2-1.237 0.181h-0.285v1.22h-2.907l-0.72-0.823-0.76 0.8h-4.721v-5.24h4.813l0.691 0.803 0.739-0.8h3.216c0.373 0 0.987 0.040 1.256 0.3v-0.32h2.903c0.269 0 0.859 0.060 1.204 0.3v-0.32h4.353v0.32c0.217-0.219 0.677-0.32 1.071-0.32h2.52v0.32c0.259-0.2 0.619-0.32 1.12-0.32h1.568v-17.445zM28.208 19.94c0.005 0.007 0.008 0.016 0.013 0.021 0.013 0.013 0.032 0.013 0.043 0.027zM31.771 17.443h0.087v0.74h-0.087zM31.82 20.040v-0.007c-0.040-0.033-0.061-0.064-0.1-0.093-0.2-0.204-0.52-0.287-1.019-0.3l-0.48-0.016c-0.16 0-0.259-0.009-0.36-0.040-0.12-0.040-0.2-0.14-0.2-0.28 0-0.12 0.040-0.213 0.12-0.272 0.101-0.060 0.2-0.067 0.36-0.067h1.631v-0.784h-1.711c-0.92 0-1.28 0.583-1.28 1.12 0 1.2 1.040 1.14 1.88 1.16 0.139 0 0.24 0.020 0.299 0.080 0.061 0.040 0.101 0.141 0.101 0.24 0 0.093-0.045 0.184-0.12 0.24-0.060 0.075-0.181 0.093-0.36 0.093h-1.717v0.807h1.716c0.56 0 0.979-0.157 1.2-0.48h0.040c0.12-0.179 0.18-0.4 0.18-0.697 0-0.32-0.060-0.52-0.18-0.704zM24.796 18.944v-0.777h-2.98v3.777h2.98v-0.78h-2.093v-0.76h2.044v-0.779h-2.043v-0.68zM18.013 11.716h0.913v3.751h-0.912zM17.501 12.724l-0.009 0.008c0-0.419-0.173-0.667-0.453-0.832-0.289-0.167-0.627-0.18-1.080-0.18h-2.052v3.76h0.899v-1.379h0.96c0.32 0 0.52 0.040 0.649 0.16 0.163 0.181 0.143 0.504 0.143 0.731v0.472h0.903v-0.737c0-0.333-0.021-0.5-0.147-0.688-0.12-0.143-0.269-0.253-0.44-0.316 0.229-0.093 0.629-0.4 0.628-0.999zM16.361 13.252h-0.020c-0.12 0.072-0.26 0.075-0.44 0.075h-1.101v-0.831h1.1c0.16 0 0.32 0.005 0.44 0.067 0.12 0.053 0.2 0.171 0.2 0.333s-0.063 0.293-0.179 0.356zM21.227 12.497h0.843v-0.8h-0.859c-0.619 0-1.072 0.14-1.36 0.44-0.381 0.4-0.483 0.92-0.483 1.48 0 0.683 0.164 1.111 0.48 1.432 0.309 0.317 0.86 0.413 1.293 0.413h1.040l0.34-0.836h1.853l0.349 0.836h1.813v-2.813l1.696 2.813h1.267l0.003 0.003v-3.751h-0.912v2.617l-1.573-2.613h-1.36v3.481l-1.511-3.541h-1.339l-1.257 2.96h-0.4c-0.236 0-0.483-0.040-0.624-0.179-0.167-0.2-0.248-0.48-0.248-0.883 0-0.38 0.107-0.68 0.259-0.84 0.177-0.18 0.363-0.22 0.689-0.22zM23.451 12.353l0.619 1.491v0.003h-1.24zM3.173 14.627l0.339 0.837h1.821v-2.94l1.296 2.94h0.779l1.297-2.936 0.020 2.936h0.92v-3.747h-1.488l-1.076 2.539-1.168-2.54h-1.456v3.551l-1.517-3.551h-1.329l-1.597 3.747h0.96l0.347-0.835zM2.256 12.353l0.613 1.491-0.004 0.003h-1.22zM15.808 18.16h-2.856l-1.133 1.231-1.1-1.229h-3.591v3.76h3.539l1.14-1.243 1.099 1.24h1.736v-1.253h1.117c0.8 0 1.56-0.219 1.56-1.26l-0.008-0.004c0-1.040-0.797-1.24-1.503-1.241zM10.227 21.137l-0.019-0.003h-2.181v-0.743h1.96v-0.765h-1.96v-0.68h2.24l0.977 1.093zM13.749 21.577l-1.373-1.529 1.373-1.477zM15.82 19.9h-1.18v-0.956h1.18c0.32 0 0.56 0.131 0.56 0.459 0 0.324-0.2 0.496-0.56 0.497zM13.289 12.497v-0.781h-2.983v3.751h2.983v-0.773h-2.089v-0.752h2.036v-0.768h-2.036v-0.676z"></path>
</symbol>
<symbol id="googlepay" viewBox="0 0 32 32">
<path fill="#5f6368" style="fill: var(--color3, #5f6368)" d="M32 13.333l-4.179 9.333h-1.291l1.551-3.267-2.748-6.067h1.36l1.987 4.653h0.027l1.931-4.653zM14.644 16.221v3.779h-1.311v-9.333h3.476c0.025-0.001 0.053-0.001 0.082-0.001 0.831 0 1.59 0.306 2.171 0.812l-0.004-0.003c0.611 0.503 0.953 1.22 0.941 1.971 0 0.009 0 0.020 0 0.030 0 0.788-0.366 1.49-0.937 1.946l-0.005 0.004c-0.607 0.531-1.357 0.795-2.249 0.795zM14.641 11.816v3.259h2.197c0.487 0.013 0.957-0.163 1.297-0.483 0.336-0.3 0.527-0.711 0.527-1.141 0-0.429-0.191-0.84-0.527-1.14-0.321-0.307-0.757-0.496-1.237-0.496-0.021 0-0.043 0-0.064 0.001l0.003-0zM22.629 13.333c0.836 0 1.496 0.232 1.98 0.696 0.483 0.464 0.724 1.101 0.724 1.909v3.857h-1.081v-0.869h-0.049c-0.468 0.716-1.091 1.073-1.867 1.073-0.664 0-1.219-0.204-1.667-0.613-0.412-0.366-0.67-0.898-0.67-1.489 0-0.015 0-0.031 0.001-0.046l-0 0.002c0-0.647 0.236-1.161 0.707-1.544s1.1-0.573 1.887-0.575c0.671 0 1.224 0.128 1.657 0.383v-0.268c0-0.004 0-0.009 0-0.014 0-0.408-0.18-0.775-0.465-1.024l-0.002-0.001c-0.28-0.266-0.66-0.429-1.078-0.429-0.005 0-0.009 0-0.014 0h0.001c-0.632 0-1.132 0.277-1.499 0.831l-0.996-0.651c0.547-0.817 1.357-1.227 2.431-1.227zM21.167 17.88c-0 0.003-0 0.006-0 0.009 0 0.308 0.147 0.582 0.374 0.756l0.002 0.002c0.249 0.204 0.56 0.312 0.879 0.307 0.476-0.001 0.933-0.2 1.271-0.549 0.346-0.32 0.563-0.777 0.563-1.284 0-0.002 0-0.004 0-0.005v0c-0.353-0.293-0.844-0.439-1.475-0.439-0.46 0-0.843 0.116-1.149 0.347-0.309 0.232-0.464 0.516-0.464 0.857zM5.441 10.667c0.020-0 0.043-0 0.067-0 1.379 0 2.635 0.528 3.577 1.393l-0.004-0.003-1.552 1.523c-0.532-0.496-1.248-0.8-2.035-0.8-0.019 0-0.037 0-0.056 0.001l0.003-0c-1.411 0.009-2.607 0.916-3.048 2.177l-0.007 0.023c-0.108 0.304-0.171 0.656-0.171 1.021s0.063 0.717 0.178 1.043l-0.007-0.022c0.447 1.284 1.644 2.191 3.054 2.2h0.001c0.735 0 1.364-0.184 1.853-0.508 0.572-0.373 0.964-0.96 1.085-1.623h-2.939v-2.053h5.132c0.063 0.359 0.093 0.72 0.093 1.084 0 1.623-0.592 2.996-1.619 3.924-0.901 0.816-2.139 1.288-3.607 1.288-0.007 0-0.014 0-0.022 0-2.093 0-3.91-1.179-4.825-2.909l-0.014-0.030c-0.365-0.696-0.579-1.52-0.579-2.395s0.214-1.699 0.593-2.424l-0.014 0.029c0.929-1.76 2.746-2.939 4.839-2.939 0.008 0 0.016 0 0.024 0h-0.001z"></path>
</symbol>
<symbol id="applepay" viewBox="0 0 32 32">
<path d="M5.851 11.045c-0.376 0.449-0.976 0.803-1.576 0.752-0.075-0.607 0.219-1.251 0.563-1.649 0.376-0.461 1.032-0.788 1.563-0.815 0.063 0.632-0.181 1.251-0.549 1.712zM6.393 11.917c-0.868-0.051-1.613 0.5-2.024 0.5-0.42 0-1.051-0.475-1.739-0.461-0.893 0.013-1.724 0.524-2.18 1.34-0.939 1.629-0.244 4.044 0.661 5.371 0.444 0.657 0.976 1.377 1.676 1.352 0.661-0.025 0.924-0.436 1.724-0.436 0.807 0 1.037 0.436 1.739 0.424 0.724-0.013 1.18-0.657 1.624-1.315 0.507-0.747 0.713-1.472 0.725-1.511-0.013-0.013-1.4-0.549-1.413-2.167-0.012-1.353 1.093-1.997 1.144-2.035-0.624-0.936-1.6-1.037-1.937-1.063zM11.413 10.085v9.852h1.513v-3.368h2.093c1.912 0 3.256-1.328 3.256-3.248 0-1.921-1.319-3.236-3.205-3.236zM12.927 11.375h1.744c1.312 0 2.061 0.707 2.061 1.952s-0.749 1.96-2.068 1.96h-1.739zM21.039 20.012c0.951 0 1.832-0.485 2.232-1.257h0.031v1.183h1.4v-4.904c0-1.421-1.125-2.339-2.856-2.339-1.607 0-2.793 0.929-2.837 2.205h1.363c0.112-0.607 0.668-1.004 1.431-1.004 0.925 0 1.444 0.436 1.444 1.239v0.543l-1.888 0.115c-1.756 0.107-2.707 0.833-2.707 2.097 0 1.276 0.981 2.123 2.388 2.123zM21.445 18.844c-0.807 0-1.32-0.392-1.32-0.992 0-0.62 0.495-0.98 1.439-1.037l1.68-0.107v0.556c0 0.923-0.773 1.58-1.799 1.58zM26.571 22.617c1.475 0 2.168-0.569 2.773-2.295l2.656-7.533h-1.537l-1.781 5.82h-0.031l-1.781-5.82h-1.581l2.561 7.173-0.137 0.436c-0.231 0.739-0.605 1.023-1.275 1.023-0.119 0-0.349-0.013-0.444-0.025v1.183c0.088 0.025 0.463 0.037 0.577 0.039z"></path>
</symbol>
<symbol id="shape" viewBox="0 0 39 32">
<path fill="#ff8d00" style="fill: var(--color1, #ff8d00)" d="M0.842 32l18.526-32 18.526 32h-37.051z"></path>
</symbol>
<symbol id="reddit" viewBox="0 0 29 28">
<path fill="#323642" style="fill: var(--color1, #323642)" d="M14.148 0.007c7.982-0.18 14.522 6.341 14.311 14.397-0.193 7.344-6.217 13.676-14.158 13.596-7.566-0.076-13.79-6.209-13.828-14.002 0.046-7.781 6.234-13.823 13.675-13.991z"></path>
<path fill="#fff" style="fill: var(--color2, #fff)" d="M13.010 23.907c-1.68-0.211-3.283-0.673-4.727-1.585-1.265-0.798-2.307-1.81-2.913-3.21-0.426-0.984-0.535-2.008-0.36-3.062 0.018-0.113-0.004-0.176-0.108-0.245-0.628-0.421-1.084-0.975-1.202-1.742-0.298-1.95 1.436-3.137 2.896-2.75 0.423 0.112 0.814 0.343 1.215 0.528 0.098 0.045 0.164 0.074 0.27 0.002 1.172-0.799 2.46-1.322 3.845-1.615 0.773-0.164 1.551-0.275 2.342-0.27 0.156 0.001 0.186-0.083 0.223-0.2 0.421-1.342 0.845-2.682 1.268-4.023 0.15-0.476 0.378-0.61 0.864-0.505 1.172 0.25 2.343 0.496 3.514 0.752 0.144 0.032 0.227 0.005 0.324-0.108 0.994-1.155 2.535-0.627 3.031 0.255 0.62 1.104-0.075 2.483-1.355 2.689-0.931 0.15-1.853-0.44-2.101-1.366-0.053-0.196-0.145-0.261-0.33-0.299-0.904-0.184-1.803-0.384-2.704-0.578-0.071-0.015-0.144-0.024-0.235-0.038-0.377 1.174-0.75 2.337-1.134 3.53 0.227 0.024 0.424 0.044 0.622 0.065 1.765 0.179 3.401 0.727 4.886 1.706 0.094 0.061 0.15 0.058 0.241-0.017 0.8-0.654 1.694-0.77 2.627-0.359 0.863 0.383 1.338 1.083 1.427 2.025 0.090 0.96-0.36 1.673-1.102 2.223-0.178 0.132-0.234 0.243-0.202 0.472 0.232 1.718-0.269 3.223-1.398 4.519-1.425 1.633-3.274 2.525-5.352 2.993-0.921 0.207-1.849 0.311-2.782 0.311-0.53 0-1.061-0.033-1.593-0.1z"></path>
</symbol>
<symbol id="google-plus" viewBox="0 0 32 32">
<path d="M10.181 14.294v3.494h5.775c-0.231 1.5-1.744 4.394-5.775 4.394-3.475 0-6.313-2.881-6.313-6.431s2.838-6.431 6.313-6.431c1.981 0 3.3 0.844 4.056 1.569l2.762-2.662c-1.775-1.656-4.075-2.662-6.819-2.662-5.631 0.006-10.181 4.556-10.181 10.188s4.55 10.181 10.181 10.181c5.875 0 9.775-4.131 9.775-9.95 0-0.669-0.075-1.181-0.163-1.688h-9.613z"></path>
<path d="M32 14h-3v-3h-3v3h-3v3h3v3h3v-3h3z"></path>
</symbol>
<symbol id="facebook" viewBox="0 0 32 32">
<path d="M19 6h5v-6h-5c-3.86 0-7 3.14-7 7v3h-4v6h4v16h6v-16h5l1-6h-6v-3c0-0.542 0.458-1 1-1z"></path>
</symbol>
<symbol id="twitter" viewBox="0 0 32 32">
<path d="M32 7.075c-1.175 0.525-2.444 0.875-3.769 1.031 1.356-0.813 2.394-2.1 2.887-3.631-1.269 0.75-2.675 1.3-4.169 1.594-1.2-1.275-2.906-2.069-4.794-2.069-3.625 0-6.563 2.938-6.563 6.563 0 0.512 0.056 1.012 0.169 1.494-5.456-0.275-10.294-2.888-13.531-6.862-0.563 0.969-0.887 2.1-0.887 3.3 0 2.275 1.156 4.287 2.919 5.463-1.075-0.031-2.087-0.331-2.975-0.819 0 0.025 0 0.056 0 0.081 0 3.181 2.263 5.838 5.269 6.437-0.55 0.15-1.131 0.231-1.731 0.231-0.425 0-0.831-0.044-1.237-0.119 0.838 2.606 3.263 4.506 6.131 4.563-2.25 1.762-5.075 2.813-8.156 2.813-0.531 0-1.050-0.031-1.569-0.094 2.913 1.869 6.362 2.95 10.069 2.95 12.075 0 18.681-10.006 18.681-18.681 0-0.287-0.006-0.569-0.019-0.85 1.281-0.919 2.394-2.075 3.275-3.394z"></path>
</symbol>
<symbol id="youtube" viewBox="0 0 32 32">
<path d="M31.681 9.6c0 0-0.313-2.206-1.275-3.175-1.219-1.275-2.581-1.281-3.206-1.356-4.475-0.325-11.194-0.325-11.194-0.325h-0.012c0 0-6.719 0-11.194 0.325-0.625 0.075-1.987 0.081-3.206 1.356-0.963 0.969-1.269 3.175-1.269 3.175s-0.319 2.588-0.319 5.181v2.425c0 2.587 0.319 5.181 0.319 5.181s0.313 2.206 1.269 3.175c1.219 1.275 2.819 1.231 3.531 1.369 2.563 0.244 10.881 0.319 10.881 0.319s6.725-0.012 11.2-0.331c0.625-0.075 1.988-0.081 3.206-1.356 0.962-0.969 1.275-3.175 1.275-3.175s0.319-2.587 0.319-5.181v-2.425c-0.006-2.588-0.325-5.181-0.325-5.181zM12.694 20.15v-8.994l8.644 4.513-8.644 4.481z"></path>
</symbol>
<symbol id="linkedin" viewBox="0 0 32 32">
<path d="M29 0h-26c-1.65 0-3 1.35-3 3v26c0 1.65 1.35 3 3 3h26c1.65 0 3-1.35 3-3v-26c0-1.65-1.35-3-3-3zM12 26h-4v-14h4v14zM10 10c-1.106 0-2-0.894-2-2s0.894-2 2-2c1.106 0 2 0.894 2 2s-0.894 2-2 2zM26 26h-4v-8c0-1.106-0.894-2-2-2s-2 0.894-2 2v8h-4v-14h4v2.481c0.825-1.131 2.087-2.481 3.5-2.481 2.488 0 4.5 2.238 4.5 5v9z"></path>
</symbol>
</defs>
</svg>
