<svg aria-hidden="true" style="position: absolute; width: 0; height: 0; overflow: hidden;" version="1.1" xmlns="http://www.w3.org/2000/svg" xmlns:xlink="http://www.w3.org/1999/xlink">
<defs>
<symbol id="logo" viewBox="0 0 26 28">
<path fill="#349334" style="fill: var(--color1, #349334)" d="M23.109 10.145v0.001h-1.134v-1.013c0-5.027-4.099-9.101-9.154-9.101s-9.153 4.075-9.153 9.101v1.013h-1.132c-1.188 0-2.151 0.957-2.151 2.139v8.355c0.003 0.557 0.036 0.961 0.253 1.255 0.225 0.296 0.605 0.401 1.172 0.4h1.82l0.278 4.4c0 0.010-0.001 0.028-0.001 0.050 0.001 0.117 0.014 0.385 0.161 0.642 0.145 0.259 0.451 0.491 0.945 0.487h4.627l2.403-2.549h1.795l2.324 2.628h0.064c0 0 0.841 0 1.772 0 0.93 0 1.951 0 2.311 0v0h0.001c0.358-0.002 0.684 0.007 0.968-0.173 0.283-0.185 0.453-0.534 0.535-1.145 0.119-0.887 0.147-3.314 0.202-4.338h1.819c0.56-0.002 0.925-0.055 1.163-0.311 0.229-0.259 0.259-0.63 0.262-1.186v-8.514c0-1.183-0.963-2.139-2.15-2.14h0z"></path>
<path fill="#4cb649" style="fill: var(--color2, #4cb649)" d="M24.975 20.801c0.003 0.547-0.052 0.854-0.188 0.995-0.126 0.147-0.401 0.218-0.95 0.217h-2.091l-0.007 0.135c-0.051 0.965-0.084 3.547-0.206 4.45-0.078 0.583-0.231 0.83-0.407 0.943-0.178 0.119-0.449 0.128-0.812 0.126h-0.001c-0.662 0-3.549 0-4.020 0l-2.324-2.628h-2.049l-2.403 2.548h-4.504c-0.41-0.004-0.585-0.161-0.697-0.344-0.107-0.183-0.124-0.409-0.123-0.498 0-0.028 0.001-0.039 0.001-0.039l0.001-0.011-0.297-4.683h-2.089c-0.544-0.001-0.804-0.101-0.942-0.286-0.146-0.186-0.199-0.539-0.197-1.084v-8.354c0.002-1.024 0.835-1.852 1.865-1.854h1.419v-1.298c0.009-4.868 3.969-8.806 8.868-8.815 4.898 0.009 8.859 3.947 8.868 8.816v1.298h1.42c1.029 0.002 1.862 0.829 1.863 1.854v8.514h0.001z"></path>
<path fill="#118011" style="fill: var(--color3, #118011)" d="M4.226 21.783h17.231v0.565h-17.231v-0.565z"></path>
<path fill="#118011" style="fill: var(--color3, #118011)" d="M3.942 21.982v-10.788h0.285v10.788h-0.285z"></path>
<path fill="#118011" style="fill: var(--color3, #118011)" d="M21.459 21.982v-10.788h0.286v10.788h-0.286z"></path>
<path fill="#000" style="fill: var(--color4, #000)" d="M6.526 13.524c0-0.623 2.762-1.127 6.168-1.127s6.169 0.505 6.169 1.127-2.762 1.127-6.169 1.127c-3.407 0-6.168-0.505-6.168-1.127z"></path>
<path fill="#fff" style="fill: var(--color5, #fff)" d="M18.449 10.635v-1.65c0-3.108-2.517-5.629-5.624-5.629s-5.625 2.521-5.625 5.629v1.65h11.248z"></path>
<path fill="#000" style="fill: var(--color4, #000)" d="M10.455 8.912h5.016v0.59h-5.016v-0.59z"></path>
<path fill="#000" style="fill: var(--color4, #000)" d="M9.914 6.429c0-0.575 0.464-1.041 1.037-1.041s1.037 0.466 1.037 1.041c0 0.575-0.464 1.041-1.037 1.041s-1.037-0.466-1.037-1.041z"></path>
<path fill="#000" style="fill: var(--color4, #000)" d="M13.62 6.429c0-0.575 0.464-1.041 1.037-1.041s1.037 0.466 1.037 1.041c0 0.575-0.464 1.041-1.037 1.041s-1.037-0.466-1.037-1.041z"></path>
<path fill="#fff" style="fill: var(--color5, #fff)" d="M10.805 19.722v-2.816h3.779v2.816h-3.779z"></path>
<path fill="#fff" style="fill: var(--color5, #fff)" d="M11.377 16.612c0.17-0.595 0.697-1.027 1.32-1.027 0.623 0.001 1.15 0.433 1.321 1.027h0.449c-0.181-0.831-0.899-1.458-1.769-1.458-0.869 0.001-1.588 0.628-1.768 1.458h0.449z"></path>
<path fill="#118011" style="fill: var(--color3, #118011)" d="M24.122 22.589c0.101-0.001 0.193-0.004 0.282-0.008v-0.315c-0.163 0.025-0.351 0.035-0.57 0.035h-1.82c-0.028 0.509-0.048 1.363-0.077 2.203h0.296c0.024-0.743 0.044-1.465 0.067-1.915l1.821 0z"></path>
<path fill="#000" style="fill: var(--color4, #000)" d="M24.406 22.732v-0.157c-0.089 0.004-0.182 0.007-0.282 0.008h-1.82c-0.024 0.452-0.044 1.176-0.067 1.921h0.421c0.966 0 1.748-0.793 1.748-1.772z"></path>
<path fill="#118011" style="fill: var(--color3, #118011)" d="M3.632 22.297h-1.821c-0.282 0.001-0.517-0.025-0.71-0.088v0.367c0.115 0.013 0.24 0.020 0.377 0.019l1.822-0.001 0.121 1.908h0.351l-0.14-2.205z"></path>
<path fill="#000" style="fill: var(--color4, #000)" d="M1.478 22.592c-0.137 0-0.262-0.006-0.378-0.019v0.159c0 0.979 0.783 1.773 1.748 1.773h0.574l-0.121-1.913h-1.823z"></path>
</symbol>
<symbol id="logo-text" viewBox="0 0 263 28">
<path d="M0.636 27.346v-18.807h3.366l0.126 1.331c0.88-1.054 2.027-1.582 3.443-1.582 1.674 0 2.976 0.62 3.905 1.858 0.929 1.239 1.394 2.946 1.394 5.122v0.189h-0.001c0 2.092-0.475 3.768-1.427 5.029-0.949 1.26-2.234 1.889-3.848 1.889-1.373 0-2.483-0.477-3.328-1.432v6.404h-3.629z"></path>
<path d="M23.139 11.943c-0.495-0.067-0.929-0.1-1.307-0.1-1.374 0-2.275 0.465-2.702 1.394v8.89h-3.632v-13.587h3.432l0.1 1.619c0.73-1.247 1.738-1.871 3.029-1.871 0.402 0 0.779 0.054 1.131 0.163l-0.051 3.493z"></path>
<path d="M25.8 6.379c-0.372-0.352-0.559-0.804-0.559-1.356 0-0.544 0.182-0.991 0.546-1.343s0.86-0.528 1.487-0.528c0.619 0 1.114 0.176 1.481 0.528 0.369 0.352 0.553 0.8 0.553 1.343 0 0.552-0.186 1.005-0.559 1.356-0.373 0.352-0.865 0.528-1.476 0.528s-1.102-0.176-1.475-0.528zM25.455 22.124v-13.586h3.642v13.586h-3.642z"></path>
<path d="M37.555 17.692l2.525-9.157h3.794l-4.585 13.591h-3.467l-4.585-13.593h3.794l2.525 9.158z"></path>
<path d="M46.43 21.216c-0.875-0.77-1.313-1.74-1.313-2.912 0-1.439 0.534-2.543 1.601-3.314 1.068-0.77 2.611-1.159 4.629-1.167h1.67v-0.779c0-0.627-0.162-1.129-0.483-1.506-0.322-0.376-0.832-0.564-1.526-0.564-0.611 0-1.090 0.146-1.438 0.439-0.347 0.294-0.521 0.695-0.521 1.205h-3.63c0-0.787 0.243-1.514 0.729-2.185s1.172-1.196 2.060-1.576c0.888-0.381 1.884-0.571 2.989-0.571 1.674 0 3.004 0.42 3.988 1.261 0.984 0.842 1.475 2.024 1.475 3.546v5.888c0.009 1.288 0.189 2.263 0.54 2.925v0.212h-3.666v0.005c-0.168-0.328-0.288-0.733-0.363-1.218-0.88 0.979-2.022 1.468-3.43 1.468-1.331 0-2.435-0.385-3.309-1.156v0z"></path>
<path d="M64.178 5.192v3.34h2.324v2.662h-2.324v6.782c0 0.502 0.096 0.862 0.289 1.080s0.561 0.327 1.105 0.327c0.402 0 0.757-0.030 1.067-0.088v2.751c-0.712 0.217-1.444 0.327-2.198 0.327-2.546 0-3.843-1.285-3.892-3.856v-7.322h-1.984v-2.663h1.984v-3.34h3.629z"></path>
<path d="M70.293 20.539c-1.253-1.222-1.878-2.849-1.878-4.882v-0.352c0-1.363 0.264-2.584 0.791-3.658 0.528-1.076 1.276-1.903 2.243-2.486 0.967-0.581 2.070-0.871 3.311-0.871 1.86 0 3.324 0.586 4.393 1.756 1.068 1.171 1.602 2.833 1.602 4.983v1.481h-8.657c0.117 0.887 0.471 1.598 1.061 2.134 0.591 0.535 1.337 0.804 2.244 0.804 1.398 0 2.491-0.507 3.279-1.519l1.784 1.995c-0.544 0.771-1.281 1.37-2.211 1.802-0.931 0.432-1.962 0.646-3.092 0.646-1.994 0-3.617-0.611-4.869-1.833v0z"></path>
<path d="M83.947 5.326c-0.184-0.192-0.276-0.428-0.276-0.712 0-0.282 0.093-0.521 0.276-0.717 0.184-0.195 0.435-0.294 0.753-0.294 0.319 0 0.571 0.097 0.761 0.294 0.188 0.196 0.282 0.434 0.282 0.717 0 0.284-0.094 0.521-0.282 0.712-0.189 0.192-0.442 0.288-0.761 0.288-0.318 0-0.569-0.096-0.753-0.288zM83.935 22.124v-13.586h1.507v13.586h-1.507z"></path>
<path d="M91.341 8.539l0.051 2.323c0.51-0.837 1.146-1.475 1.907-1.915 0.76-0.44 1.602-0.66 2.521-0.66 1.455 0 2.538 0.411 3.249 1.231s1.071 2.051 1.079 3.691v8.915h-1.493v-8.927c-0.009-1.213-0.265-2.117-0.771-2.712s-1.315-0.892-2.427-0.892c-0.928 0-1.75 0.291-2.466 0.872-0.715 0.582-1.244 1.366-1.587 2.354v9.303h-1.493v-13.584h1.431z"></path>
<path d="M106.755 5.056v3.478h2.812v1.231h-2.812v9.063c0 0.755 0.136 1.316 0.408 1.685 0.271 0.369 0.726 0.553 1.362 0.553 0.252 0 0.657-0.042 1.218-0.126l0.063 1.22c-0.393 0.141-0.928 0.211-1.606 0.211-1.029 0-1.778-0.3-2.246-0.898s-0.703-1.48-0.703-2.643v-9.064h-2.497v-1.231h2.497v-3.478h1.504z"></path>
<path d="M115.192 21.519c-0.934-0.569-1.661-1.362-2.18-2.378-0.519-1.017-0.779-2.157-0.779-3.421v-0.54c0-1.305 0.253-2.48 0.76-3.527 0.508-1.045 1.212-1.867 2.117-2.466 0.904-0.598 1.885-0.898 2.939-0.898 1.651 0 2.96 0.563 3.928 1.689 0.967 1.126 1.45 2.663 1.45 4.613v0.84h-9.701v0.289c0 1.539 0.443 2.822 1.326 3.847s1.997 1.538 3.336 1.538c0.805 0 1.514-0.147 2.132-0.44 0.615-0.291 1.174-0.761 1.677-1.405l0.944 0.715c-1.108 1.598-2.713 2.397-4.815 2.397-1.157 0-2.201-0.285-3.135-0.853z"></path>
<path d="M133.015 9.821c-0.317-0.058-0.657-0.088-1.017-0.088-0.938 0-1.731 0.261-2.381 0.784-0.649 0.523-1.112 1.283-1.388 2.279v9.33h-1.495v-13.587h1.469l0.024 2.16c0.796-1.607 2.073-2.411 3.831-2.411 0.418 0 0.749 0.054 0.992 0.163l-0.035 1.37z"></path>
<path d="M137.201 8.539l0.050 2.323c0.511-0.837 1.147-1.475 1.91-1.915 0.761-0.44 1.603-0.66 2.524-0.66 1.457 0 2.541 0.411 3.254 1.231 0.712 0.82 1.071 2.051 1.080 3.691v8.915h-1.496v-8.927c-0.008-1.213-0.265-2.117-0.772-2.712-0.506-0.594-1.316-0.892-2.43-0.892-0.929 0-1.751 0.291-2.469 0.872-0.715 0.582-1.246 1.366-1.588 2.354v9.303h-1.496v-13.584h1.433z"></path>
<path d="M152.41 21.519c-0.935-0.569-1.661-1.362-2.18-2.379-0.519-1.017-0.778-2.157-0.778-3.421v-0.54c0-1.305 0.252-2.48 0.76-3.527 0.509-1.045 1.212-1.867 2.117-2.466 0.904-0.598 1.884-0.898 2.94-0.898 1.651 0 2.96 0.563 3.928 1.689 0.967 1.126 1.45 2.663 1.45 4.613v0.84h-9.701v0.289c0 1.539 0.442 2.822 1.325 3.847 0.884 1.025 1.996 1.538 3.337 1.538 0.805 0 1.514-0.147 2.13-0.44 0.615-0.291 1.175-0.761 1.678-1.405l0.943 0.715c-1.106 1.598-2.71 2.397-4.814 2.397-1.157 0-2.201-0.285-3.135-0.853z"></path>
<path d="M166.291 5.056v3.478h2.812v1.231h-2.812v9.063c0 0.755 0.135 1.316 0.408 1.685 0.271 0.369 0.726 0.553 1.362 0.553 0.252 0 0.658-0.042 1.218-0.126l0.063 1.22c-0.393 0.141-0.928 0.211-1.607 0.211-1.029 0-1.777-0.3-2.246-0.898-0.468-0.598-0.702-1.48-0.702-2.643v-9.064h-2.497v-1.231h2.497v-3.478h1.504z"></path>
<path d="M173.111 21.28c-0.807-0.729-1.211-1.65-1.211-2.763 0-1.323 0.551-2.37 1.651-3.14 1.101-0.77 2.634-1.156 4.602-1.156h2.725v-1.543c0-0.971-0.301-1.736-0.898-2.292-0.599-0.556-1.471-0.835-2.618-0.835-1.048 0-1.913 0.267-2.601 0.804-0.687 0.536-1.030 1.18-1.030 1.934l-1.506-0.013c0-1.081 0.502-2.015 1.506-2.806 1.006-0.793 2.24-1.187 3.705-1.187 1.514 0 2.711 0.378 3.585 1.137 0.874 0.758 1.324 1.816 1.349 3.172v6.43c0 1.315 0.139 2.299 0.415 2.952v0.15h-1.608v-0.003c-0.15-0.426-0.246-1.059-0.289-1.895-0.527 0.687-1.198 1.216-2.015 1.588-0.814 0.373-1.68 0.559-2.591 0.559-1.307 0-2.364-0.363-3.172-1.092v0z"></path>
<path d="M191.786 21.104c1.045 0 1.923-0.295 2.631-0.885 0.707-0.59 1.090-1.353 1.149-2.29h1.443c-0.042 0.828-0.301 1.584-0.778 2.266s-1.111 1.215-1.9 1.6c-0.792 0.385-1.639 0.577-2.543 0.577-1.783 0-3.194-0.619-4.236-1.858-1.042-1.238-1.563-2.903-1.563-4.995v-0.452c0-1.339 0.233-2.522 0.702-3.551s1.141-1.824 2.015-2.384c0.874-0.561 1.898-0.841 3.070-0.841 1.489 0 2.717 0.444 3.684 1.33 0.966 0.887 1.483 2.054 1.549 3.502h-1.443c-0.069-1.062-0.45-1.92-1.15-2.573-0.699-0.652-1.579-0.979-2.641-0.979-1.357 0-2.409 0.489-3.158 1.468s-1.124 2.352-1.124 4.117v0.439c0 1.732 0.375 3.083 1.124 4.054 0.75 0.97 1.807 1.454 3.171 1.454v0z"></path>
<path d="M205.411 21.104c1.045 0 1.923-0.295 2.63-0.885 0.708-0.59 1.091-1.353 1.149-2.29h1.444c-0.042 0.828-0.301 1.584-0.778 2.266s-1.111 1.215-1.902 1.6c-0.791 0.385-1.638 0.577-2.542 0.577-1.783 0-3.194-0.619-4.236-1.858-1.043-1.238-1.565-2.903-1.565-4.995v-0.452c0-1.339 0.234-2.522 0.703-3.551 0.468-1.029 1.14-1.824 2.015-2.384 0.874-0.561 1.897-0.841 3.068-0.841 1.49 0 2.718 0.444 3.684 1.33 0.967 0.887 1.484 2.054 1.55 3.502h-1.444c-0.068-1.062-0.449-1.92-1.149-2.573-0.699-0.652-1.58-0.979-2.643-0.979-1.356 0-2.408 0.489-3.157 1.468s-1.123 2.352-1.123 4.117v0.439c0 1.732 0.374 3.083 1.123 4.054 0.75 0.97 1.807 1.454 3.171 1.454v0z"></path>
<path d="M216.153 21.519c-0.933-0.569-1.659-1.362-2.178-2.379-0.518-1.017-0.777-2.157-0.777-3.421v-0.54c0-1.305 0.252-2.48 0.76-3.527 0.506-1.045 1.21-1.867 2.115-2.466 0.903-0.598 1.882-0.898 2.935-0.898 1.65 0 2.958 0.563 3.925 1.689 0.966 1.126 1.449 2.663 1.449 4.613v0.84h-9.691v0.289c0 1.539 0.442 2.822 1.325 3.847 0.882 1.025 1.994 1.538 3.332 1.538 0.804 0 1.513-0.147 2.129-0.44 0.614-0.291 1.173-0.761 1.675-1.405l0.942 0.715c-1.105 1.598-2.708 2.397-4.809 2.397-1.155 0-2.198-0.285-3.131-0.853z"></path>
<path d="M235.834 18.671c0-0.745-0.3-1.343-0.898-1.795s-1.501-0.805-2.707-1.060c-1.206-0.255-2.143-0.547-2.809-0.879-0.665-0.33-1.16-0.734-1.482-1.211s-0.484-1.054-0.484-1.732c0-1.071 0.448-1.957 1.344-2.656s2.044-1.048 3.443-1.048c1.516 0 2.732 0.375 3.651 1.123 0.917 0.75 1.375 1.726 1.375 2.932h-1.507c0-0.795-0.334-1.456-0.999-1.984-0.666-0.528-1.505-0.79-2.52-0.79-0.988 0-1.781 0.219-2.38 0.66-0.599 0.439-0.898 1.010-0.898 1.714 0 0.678 0.25 1.203 0.748 1.576s1.407 0.714 2.725 1.023c1.32 0.309 2.308 0.64 2.966 0.991s1.146 0.774 1.464 1.267c0.317 0.494 0.477 1.092 0.477 1.795 0 1.147-0.463 2.063-1.388 2.749s-2.134 1.029-3.625 1.029c-1.583 0-2.867-0.383-3.85-1.148-0.985-0.766-1.476-1.735-1.476-2.906h1.508c0.057 0.879 0.429 1.562 1.112 2.053 0.682 0.489 1.585 0.733 2.707 0.733 1.047 0 1.893-0.231 2.539-0.69 0.642-0.462 0.965-1.044 0.965-1.747v0z"></path>
<path d="M249.238 18.671c0-0.745-0.3-1.343-0.898-1.795s-1.502-0.805-2.707-1.060c-1.206-0.255-2.143-0.547-2.809-0.879-0.665-0.33-1.16-0.734-1.482-1.211s-0.484-1.054-0.484-1.732c0-1.071 0.448-1.957 1.344-2.656s2.044-1.048 3.443-1.048c1.516 0 2.732 0.375 3.651 1.123 0.917 0.75 1.375 1.726 1.375 2.932h-1.507c0-0.795-0.334-1.456-0.999-1.984-0.666-0.528-1.505-0.79-2.52-0.79-0.988 0-1.781 0.219-2.38 0.66-0.599 0.439-0.898 1.010-0.898 1.714 0 0.678 0.248 1.203 0.748 1.576 0.498 0.372 1.407 0.714 2.725 1.023 1.319 0.309 2.308 0.64 2.966 0.991s1.146 0.774 1.464 1.267c0.317 0.494 0.477 1.092 0.477 1.795 0 1.147-0.463 2.063-1.388 2.749s-2.134 1.029-3.625 1.029c-1.583 0-2.867-0.383-3.85-1.148-0.985-0.766-1.476-1.735-1.476-2.906h1.508c0.057 0.879 0.429 1.562 1.112 2.053 0.682 0.489 1.585 0.733 2.707 0.733 1.047 0 1.893-0.231 2.539-0.69 0.643-0.462 0.965-1.044 0.965-1.747v0z"></path>
<path d="M256.438 6.651v-3.976h1.32c0.447 0 0.793 0.103 1.035 0.306 0.242 0.204 0.362 0.501 0.362 0.889 0 0.247-0.067 0.463-0.201 0.648-0.134 0.184-0.321 0.323-0.56 0.413l0.937 1.688v0.032h-0.565l-0.863-1.608h-0.936v1.609h-0.529z"></path>
<path d="M253.489 4.723c0-2.322 1.889-4.211 4.209-4.211 2.322 0 4.209 1.888 4.209 4.21s-1.888 4.211-4.209 4.211c-2.322 0-4.209-1.888-4.209-4.21z"></path>
</symbol>
</defs>
</svg>
